<svg width="23" height="25" viewBox="0 0 23 25" fill="none" xmlns="http://www.w3.org/2000/svg">
<path d="M18.0714 7.8125V6.25C18.0714 2.80371 15.1235 0 11.5 0C7.87647 0 4.92857 2.80371 4.92857 6.25V7.8125H0V21.0938C0 23.2511 1.83882 25 4.10714 25H18.8929C21.1612 25 23 23.2511 23 21.0938V7.8125H18.0714ZM8.21429 6.25C8.21429 4.52686 9.68824 3.125 11.5 3.125C13.3118 3.125 14.7857 4.52686 14.7857 6.25V7.8125H8.21429V6.25ZM16.4286 12.1094C15.7481 12.1094 15.1964 11.5847 15.1964 10.9375C15.1964 10.2903 15.7481 9.76562 16.4286 9.76562C17.1091 9.76562 17.6607 10.2903 17.6607 10.9375C17.6607 11.5847 17.1091 12.1094 16.4286 12.1094ZM6.57143 12.1094C5.89093 12.1094 5.33929 11.5847 5.33929 10.9375C5.33929 10.2903 5.89093 9.76562 6.57143 9.76562C7.25193 9.76562 7.80357 10.2903 7.80357 10.9375C7.80357 11.5847 7.25193 12.1094 6.57143 12.1094Z" fill="black"/>
</svg>
