<svg width="336" height="266" viewBox="0 0 336 266" fill="none" xmlns="http://www.w3.org/2000/svg">
<path d="M238.56 72.7136C241.184 73.9334 243.228 76.1199 244.259 78.8104C244.259 78.8104 243.802 71.9457 247 69.2145C247 69.2145 244.104 71.4916 243.493 74.8304C242.106 73.6381 240.384 72.899 238.56 72.7136Z" fill="#263238"/>
<path d="M224.334 55.5052C224.334 55.5052 229.643 59.6054 231.094 63.385C231.094 63.385 231.907 59.3316 235.751 58.1162C234.841 58.1029 233.942 58.3099 233.13 58.7195C232.319 59.129 231.62 59.7287 231.094 60.4668C229.434 58.1353 227.064 56.3959 224.334 55.5052Z" fill="#263238"/>
<path d="M218.662 73.3413C218.662 73.3413 223.01 72.6736 225.093 75.3046C225.093 75.3046 223.803 71.3781 225.093 68.7203C225.093 68.7203 223.373 69.8155 223.971 73.762C223.971 73.762 222.318 72.0659 218.662 73.3413Z" fill="#263238"/>
<path d="M336 218.629H0V218.796H336V218.629Z" fill="#EBEBEB"/>
<path d="M92.5076 223.176H70.251V223.343H92.5076V223.176Z" fill="#EBEBEB"/>
<path d="M142.39 229.293H115.006V229.46H142.39V229.293Z" fill="#EBEBEB"/>
<path d="M69.5789 227.203H35.2532V227.37H69.5789V227.203Z" fill="#EBEBEB"/>
<path d="M302.333 224.298H239.743V224.465H302.333V224.298Z" fill="#EBEBEB"/>
<path d="M214.664 227.116H186.285V227.283H214.664V227.116Z" fill="#EBEBEB"/>
<path d="M159.264 188.846H29.5074C28.4909 188.844 27.5166 188.442 26.7985 187.727C26.0803 187.012 25.677 186.043 25.677 185.033V3.77959C25.6859 2.77528 26.0931 1.81499 26.8103 1.10731C27.5275 0.399634 28.4967 0.00172044 29.5074 0H159.264C160.282 0 161.258 0.401724 161.977 1.1168C162.697 1.83187 163.101 2.80172 163.101 3.81298V185.033C163.101 186.044 162.697 187.014 161.977 187.729C161.258 188.444 160.282 188.846 159.264 188.846ZM29.5074 0.133555C28.5355 0.135324 27.6039 0.520238 26.9173 1.20381C26.2306 1.88738 25.845 2.81376 25.845 3.77959V185.033C25.845 185.999 26.2306 186.925 26.9173 187.609C27.6039 188.292 28.5355 188.677 29.5074 188.679H159.264C160.236 188.676 161.167 188.29 161.854 187.607C162.542 186.924 162.929 185.999 162.933 185.033V3.77959C162.929 2.81369 162.542 1.88835 161.854 1.20534C161.167 0.522339 160.236 0.137074 159.264 0.133555H29.5074Z" fill="#EBEBEB"/>
<path d="M304.624 188.846H174.861C173.844 188.843 172.871 188.44 172.152 187.725C171.433 187.011 171.027 186.043 171.024 185.033V3.77959C171.035 2.77467 171.443 1.81439 172.162 1.10689C172.88 0.399401 173.85 0.00170168 174.861 0H304.624C305.634 0.00347542 306.601 0.402165 307.317 1.10966C308.033 1.81715 308.439 2.77643 308.448 3.77959V185.033C308.449 185.533 308.351 186.028 308.159 186.49C307.967 186.952 307.686 187.372 307.331 187.727C306.976 188.081 306.554 188.362 306.09 188.554C305.625 188.746 305.127 188.845 304.624 188.846ZM174.861 0.133555C173.889 0.137074 172.958 0.522339 172.27 1.20534C171.583 1.88835 171.195 2.81369 171.192 3.77959V185.033C171.195 185.999 171.583 186.924 172.27 187.607C172.958 188.29 173.889 188.676 174.861 188.679H304.624C305.596 188.676 306.527 188.29 307.215 187.607C307.902 186.924 308.29 185.999 308.293 185.033V3.77959C308.29 2.81369 307.902 1.88835 307.215 1.20534C306.527 0.522339 305.596 0.137074 304.624 0.133555H174.861Z" fill="#EBEBEB"/>
<path d="M144.292 35.5589H198.092C198.092 35.5589 194.826 30.4705 189.242 33.0147C189.242 33.0147 188.194 27.6725 184.585 27.579C183.597 27.5062 182.609 27.7198 181.74 28.1939C180.872 28.668 180.161 29.3823 179.693 30.2501C179.693 30.2501 175.499 23.7727 169.095 25.1617C167.313 25.504 165.682 26.3895 164.43 27.6951C163.177 29.0008 162.365 30.6617 162.106 32.4471C162.106 32.4471 152.544 27.579 144.292 35.5589Z" fill="#FAFAFA"/>
<path d="M45.9648 109.989H99.7248C99.7248 109.989 96.4656 104.894 90.8746 107.438C90.8746 107.438 89.8263 102.096 86.2176 102.002C85.2301 101.933 84.2433 102.148 83.3756 102.622C82.5079 103.095 81.7961 103.808 81.3255 104.673C81.3255 104.673 77.1389 98.1893 70.7348 99.5782C68.9616 99.9256 67.3404 100.811 66.0947 102.112C64.8491 103.413 64.0402 105.066 63.7796 106.844C63.7796 106.844 54.2304 102.002 45.9648 109.989Z" fill="#FAFAFA"/>
<path d="M250.354 73.9959H304.147C304.147 73.9959 300.888 68.9075 295.297 71.4517C295.297 71.4517 294.255 66.1095 290.64 66.016C289.653 65.9445 288.666 66.1588 287.799 66.6328C286.932 67.1069 286.222 67.8204 285.754 68.6871C285.754 68.6871 281.561 62.2097 275.157 63.5987C273.375 63.941 271.744 64.8265 270.492 66.1322C269.239 67.4378 268.427 69.0987 268.168 70.8841C268.168 70.8841 258.619 66.016 250.354 73.9959Z" fill="#FAFAFA"/>
<path d="M247.036 42.2226C247.73 39.3122 245.918 36.3939 242.989 35.7043C240.061 35.0147 237.124 36.815 236.43 39.7254C235.736 42.6358 237.548 45.5541 240.476 46.2437C243.405 46.9333 246.342 45.133 247.036 42.2226Z" fill="#F0F0F0"/>
<path d="M40.824 73.9959H94.6176C94.6176 73.9959 91.392 68.9075 85.7673 71.4517C85.7673 71.4517 84.719 66.1095 81.1104 66.016C80.1234 65.9445 79.1367 66.1588 78.2697 66.6328C77.4027 67.1069 76.6924 67.8204 76.2249 68.6871C76.2249 68.6871 72.0317 62.2097 65.6275 63.5987C63.8453 63.941 62.2146 64.8265 60.9621 66.1322C59.7096 67.4378 58.8975 69.0987 58.6387 70.8841C58.6387 70.8841 49.0896 66.016 40.824 73.9959Z" fill="#FAFAFA"/>
<path d="M137.276 90.196H80.2368V200.813H137.276V90.196Z" fill="#E6E6E6"/>
<path d="M126.907 90.196H80.2368V200.813H126.907V90.196Z" fill="#F0F0F0"/>
<path d="M137.948 90.196H79.0071V91.999H137.948V90.196Z" fill="#E0E0E0"/>
<path d="M137.948 86.5834H79.0071V88.3864H137.948V86.5834Z" fill="#E0E0E0"/>
<path d="M136.712 88.3865H80.2368V90.1895H136.712V88.3865Z" fill="#F0F0F0"/>
<path d="M93.4282 96.7069H84.6653V105.415H93.4282V96.7069Z" fill="#E6E6E6"/>
<path d="M93.4281 96.7069H85.438V105.415H93.4281V96.7069Z" fill="#F5F5F5"/>
<path d="M106.707 96.7069H97.9441V105.415H106.707V96.7069Z" fill="#E6E6E6"/>
<path d="M106.707 96.7069H98.7168V105.415H106.707V96.7069Z" fill="#F5F5F5"/>
<path d="M119.979 96.7069H111.216V105.415H119.979V96.7069Z" fill="#E6E6E6"/>
<path d="M119.979 96.7069H111.989V105.415H119.979V96.7069Z" fill="#F5F5F5"/>
<path d="M93.4282 109.535H84.6653V118.243H93.4282V109.535Z" fill="#E6E6E6"/>
<path d="M93.4281 109.535H85.438V118.243H93.4281V109.535Z" fill="#F5F5F5"/>
<path d="M106.707 109.535H97.9441V118.243H106.707V109.535Z" fill="#E6E6E6"/>
<path d="M106.707 109.535H98.7168V118.243H106.707V109.535Z" fill="#F5F5F5"/>
<path d="M119.979 109.535H111.216V118.243H119.979V109.535Z" fill="#E6E6E6"/>
<path d="M119.979 109.535H111.989V118.243H119.979V109.535Z" fill="#F5F5F5"/>
<path d="M93.4282 133.02H84.6653V141.728H93.4282V133.02Z" fill="#E6E6E6"/>
<path d="M93.4281 133.02H85.438V141.728H93.4281V133.02Z" fill="#F5F5F5"/>
<path d="M106.707 133.02H97.9441V141.728H106.707V133.02Z" fill="#E6E6E6"/>
<path d="M106.707 133.02H98.7168V141.728H106.707V133.02Z" fill="#F5F5F5"/>
<path d="M119.979 133.02H111.216V141.728H119.979V133.02Z" fill="#E6E6E6"/>
<path d="M119.979 133.02H111.989V141.728H119.979V133.02Z" fill="#F5F5F5"/>
<path d="M93.4282 145.848H84.6653V154.556H93.4282V145.848Z" fill="#E6E6E6"/>
<path d="M93.4281 145.848H85.438V154.556H93.4281V145.848Z" fill="#F5F5F5"/>
<path d="M106.707 145.848H97.9441V154.556H106.707V145.848Z" fill="#E6E6E6"/>
<path d="M106.707 145.848H98.7168V154.556H106.707V145.848Z" fill="#F5F5F5"/>
<path d="M119.979 145.848H111.216V154.556H119.979V145.848Z" fill="#E6E6E6"/>
<path d="M119.979 145.848H111.989V154.556H119.979V145.848Z" fill="#F5F5F5"/>
<path d="M93.4282 171.951H84.6653V180.659H93.4282V171.951Z" fill="#E6E6E6"/>
<path d="M93.4281 171.951H85.438V180.659H93.4281V171.951Z" fill="#F5F5F5"/>
<path d="M106.707 171.951H97.9441V180.659H106.707V171.951Z" fill="#E6E6E6"/>
<path d="M106.707 171.951H98.7168V180.659H106.707V171.951Z" fill="#F5F5F5"/>
<path d="M119.979 171.951H111.216V180.659H119.979V171.951Z" fill="#E6E6E6"/>
<path d="M119.979 171.951H111.989V180.659H119.979V171.951Z" fill="#F5F5F5"/>
<path d="M93.4282 184.779H84.6653V193.487H93.4282V184.779Z" fill="#E6E6E6"/>
<path d="M93.4281 184.779H85.438V193.487H93.4281V184.779Z" fill="#F5F5F5"/>
<path d="M106.707 184.779H97.9441V193.487H106.707V184.779Z" fill="#E6E6E6"/>
<path d="M106.707 184.779H98.7168V193.487H106.707V184.779Z" fill="#F5F5F5"/>
<path d="M119.979 184.779H111.216V193.487H119.979V184.779Z" fill="#E6E6E6"/>
<path d="M119.979 184.779H111.989V193.487H119.979V184.779Z" fill="#F5F5F5"/>
<path d="M137.276 124.366H80.2368V125.174H137.276V124.366Z" fill="#E0E0E0"/>
<path d="M137.276 164.519H80.2368V165.327H137.276V164.519Z" fill="#E0E0E0"/>
<path d="M70.6069 123.318H31.1538V218.716H70.6069V123.318Z" fill="#E0E0E0"/>
<path d="M59.3711 123.318H31.1538V218.716H59.3711V123.318Z" fill="#F0F0F0"/>
<path d="M44.5602 131.157H34.0569V136.226H44.5602V131.157Z" fill="#E6E6E6"/>
<path d="M44.5603 131.157H34.7559V136.226H44.5603V131.157Z" fill="#F5F5F5"/>
<path d="M56.7101 131.157H46.2068V136.226H56.7101V131.157Z" fill="#E6E6E6"/>
<path d="M56.7033 131.157H46.9055V136.226H56.7033V131.157Z" fill="#F5F5F5"/>
<path d="M44.5602 140.693H34.0569V145.762H44.5602V140.693Z" fill="#E6E6E6"/>
<path d="M44.5603 140.693H34.7559V145.762H44.5603V140.693Z" fill="#F5F5F5"/>
<path d="M56.7101 140.693H46.2068V145.762H56.7101V140.693Z" fill="#E6E6E6"/>
<path d="M56.7033 140.693H46.9055V145.762H56.7033V140.693Z" fill="#F5F5F5"/>
<path d="M44.5602 152.88H34.0569V157.948H44.5602V152.88Z" fill="#E6E6E6"/>
<path d="M44.5603 152.88H34.7559V157.948H44.5603V152.88Z" fill="#F5F5F5"/>
<path d="M56.7101 152.88H46.2068V157.948H56.7101V152.88Z" fill="#E6E6E6"/>
<path d="M56.7033 152.88H46.9055V157.948H56.7033V152.88Z" fill="#F5F5F5"/>
<path d="M44.5602 159.878H34.0569V164.947H44.5602V159.878Z" fill="#E6E6E6"/>
<path d="M44.5603 159.878H34.7559V164.947H44.5603V159.878Z" fill="#F5F5F5"/>
<path d="M56.7101 159.878H46.2068V164.947H56.7101V159.878Z" fill="#E6E6E6"/>
<path d="M56.7033 159.878H46.9055V164.947H56.7033V159.878Z" fill="#F5F5F5"/>
<path d="M44.5602 171.384H34.0569V176.452H44.5602V171.384Z" fill="#E6E6E6"/>
<path d="M44.5603 171.384H34.7559V176.452H44.5603V171.384Z" fill="#F5F5F5"/>
<path d="M56.7101 171.384H46.2068V176.452H56.7101V171.384Z" fill="#E6E6E6"/>
<path d="M56.7033 171.384H46.9055V176.452H56.7033V171.384Z" fill="#F5F5F5"/>
<path d="M44.5602 178.382H34.0569V183.451H44.5602V178.382Z" fill="#E6E6E6"/>
<path d="M44.5603 178.382H34.7559V183.451H44.5603V178.382Z" fill="#F5F5F5"/>
<path d="M56.7101 178.382H46.2068V183.451H56.7101V178.382Z" fill="#E6E6E6"/>
<path d="M56.7033 178.382H46.9055V183.451H56.7033V178.382Z" fill="#F5F5F5"/>
<path d="M44.5602 190.903H34.0569V195.971H44.5602V190.903Z" fill="#E6E6E6"/>
<path d="M44.5603 190.903H34.7559V195.971H44.5603V190.903Z" fill="#F5F5F5"/>
<path d="M56.7101 190.903H46.2068V195.971H56.7101V190.903Z" fill="#E6E6E6"/>
<path d="M56.7033 190.903H46.9055V195.971H56.7033V190.903Z" fill="#F5F5F5"/>
<path d="M44.5602 200.145H34.0569V205.213H44.5602V200.145Z" fill="#E6E6E6"/>
<path d="M44.5603 200.145H34.7559V205.213H44.5603V200.145Z" fill="#F5F5F5"/>
<path d="M56.7101 200.145H46.2068V205.213H56.7101V200.145Z" fill="#E6E6E6"/>
<path d="M56.7033 200.145H46.9055V205.213H56.7033V200.145Z" fill="#F5F5F5"/>
<path opacity="0.05" d="M70.6069 148.88H31.1538V149.755H70.6069V148.88Z" fill="black"/>
<path opacity="0.05" d="M70.6069 167.724H31.1538V168.599H70.6069V167.724Z" fill="black"/>
<path opacity="0.05" d="M70.6069 186.736H31.1538V187.604H70.6069V186.736Z" fill="black"/>
<path d="M70.6003 120.493H29.2925V123.538H70.6003V120.493Z" fill="#E0E0E0"/>
<path opacity="0.05" d="M70.6071 120.493H61.1655V123.538H70.6071V120.493Z" fill="black"/>
<path d="M207.178 73.6287H160.85V193.273H207.178V73.6287Z" fill="#E6E6E6"/>
<path d="M190.028 73.6287H143.7V193.273H190.028V73.6287Z" fill="#F0F0F0"/>
<path d="M185.989 81.7488H147.746V87.8455H185.989V81.7488Z" fill="#E6E6E6"/>
<path d="M185.983 81.7488H149.224V87.8455H185.983V81.7488Z" fill="#F5F5F5"/>
<path d="M185.989 92.0125H147.746V98.1092H185.989V92.0125Z" fill="#E6E6E6"/>
<path d="M185.983 92.0125H149.224V98.1092H185.983V92.0125Z" fill="#F5F5F5"/>
<path d="M185.989 102.67H147.746V108.767H185.989V102.67Z" fill="#E6E6E6"/>
<path d="M185.983 102.67H149.224V108.767H185.983V102.67Z" fill="#F5F5F5"/>
<path d="M185.989 113.334H147.746V119.431H185.989V113.334Z" fill="#E6E6E6"/>
<path d="M185.983 113.334H149.224V119.431H185.983V113.334Z" fill="#F5F5F5"/>
<path d="M185.989 123.992H147.746V130.089H185.989V123.992Z" fill="#E6E6E6"/>
<path d="M185.983 123.992H149.224V130.089H185.983V123.992Z" fill="#F5F5F5"/>
<path d="M185.989 134.656H147.746V140.753H185.989V134.656Z" fill="#E6E6E6"/>
<path d="M185.983 134.656H149.224V140.753H185.983V134.656Z" fill="#F5F5F5"/>
<path d="M185.989 146.402H147.746V152.499H185.989V146.402Z" fill="#E6E6E6"/>
<path d="M185.983 146.402H149.224V152.499H185.983V146.402Z" fill="#F5F5F5"/>
<path d="M185.989 158.155H147.746V164.252H185.989V158.155Z" fill="#E6E6E6"/>
<path d="M185.983 158.155H149.224V164.252H185.983V158.155Z" fill="#F5F5F5"/>
<path d="M185.989 169.908H147.746V176.005H185.989V169.908Z" fill="#E6E6E6"/>
<path d="M185.983 169.908H149.224V176.005H185.983V169.908Z" fill="#F5F5F5"/>
<path d="M185.989 181.654H147.746V187.751H185.989V181.654Z" fill="#E6E6E6"/>
<path d="M185.983 181.654H149.224V187.751H185.983V181.654Z" fill="#F5F5F5"/>
<path d="M208.381 72.4266H142.39V75.3448H208.381V72.4266Z" fill="#E0E0E0"/>
<path d="M208.381 67.158H142.39V70.0761H208.381V67.158Z" fill="#E0E0E0"/>
<path d="M206.19 69.5018H143.7V72.42H206.19V69.5018Z" fill="#F0F0F0"/>
<path d="M207.178 81.7488H194.269V87.8455H207.178V81.7488Z" fill="#E0E0E0"/>
<path d="M207.178 91.7787H194.269V97.8755H207.178V91.7787Z" fill="#E0E0E0"/>
<path d="M207.178 101.815H194.269V107.912H207.178V101.815Z" fill="#E0E0E0"/>
<path d="M207.178 113.328H194.269V119.425H207.178V113.328Z" fill="#E0E0E0"/>
<path d="M207.178 123.992H194.269V130.089H207.178V123.992Z" fill="#E0E0E0"/>
<path d="M207.178 134.656H194.269V140.753H207.178V134.656Z" fill="#E0E0E0"/>
<path d="M207.178 146.402H194.269V152.499H207.178V146.402Z" fill="#E0E0E0"/>
<path d="M207.178 158.155H194.269V164.252H207.178V158.155Z" fill="#E0E0E0"/>
<path d="M207.178 169.901H194.269V175.998H207.178V169.901Z" fill="#E0E0E0"/>
<path d="M207.178 181.654H194.269V187.751H207.178V181.654Z" fill="#E0E0E0"/>
<path d="M312.036 165.401H308.32V171.177H312.036V165.401Z" fill="#E0E0E0"/>
<path d="M312.036 174.856H308.32V180.633H312.036V174.856Z" fill="#E0E0E0"/>
<path d="M312.036 184.038H308.32V189.814H312.036V184.038Z" fill="#E0E0E0"/>
<path d="M312.036 193.754H308.32V199.531H312.036V193.754Z" fill="#E0E0E0"/>
<path d="M312.036 203.203H308.32V208.979H312.036V203.203Z" fill="#E0E0E0"/>
<path d="M312.037 159.598H272.946V218.676H312.037V159.598Z" fill="#E6E6E6"/>
<path d="M305.437 159.598H272.953V218.676H305.437V159.598Z" fill="#F0F0F0"/>
<path d="M302.293 165.401H275.876V171.177H302.293V165.401Z" fill="#EBEBEB"/>
<path d="M302.293 174.856H275.876V180.633H302.293V174.856Z" fill="#EBEBEB"/>
<path d="M302.293 184.305H275.876V190.082H302.293V184.305Z" fill="#EBEBEB"/>
<path d="M302.293 193.754H275.876V199.531H302.293V193.754Z" fill="#EBEBEB"/>
<path d="M302.293 203.203H275.876V208.979H302.293V203.203Z" fill="#EBEBEB"/>
<path d="M302.286 165.401H276.844V171.177H302.286V165.401Z" fill="#F5F5F5"/>
<path d="M302.286 174.856H276.844V180.633H302.286V174.856Z" fill="#F5F5F5"/>
<path d="M302.286 184.305H276.844V190.082H302.286V184.305Z" fill="#F5F5F5"/>
<path d="M302.286 193.754H276.844V199.531H302.286V193.754Z" fill="#F5F5F5"/>
<path d="M302.286 203.203H276.844V208.979H302.286V203.203Z" fill="#F5F5F5"/>
<path d="M146.698 109.862H80.1494V238.916H146.698V109.862Z" fill="#407BFF"/>
<path opacity="0.4" d="M134.602 109.862H80.1494V238.916H134.602V109.862Z" fill="white"/>
<path d="M147.484 109.862H78.718V111.966H147.484V109.862Z" fill="#407BFF"/>
<path d="M147.484 105.648H78.718V107.759H147.484V105.648Z" fill="#407BFF"/>
<path d="M146.039 107.759H80.1494V109.862H146.039V107.759Z" fill="#F0F0F0"/>
<path d="M95.545 117.461H85.3171V127.625H95.545V117.461Z" fill="#407BFF"/>
<path opacity="0.2" d="M95.5449 117.461H86.2175V127.625H95.5449V117.461Z" fill="white"/>
<path d="M111.034 117.461H100.807V127.625H111.034V117.461Z" fill="#407BFF"/>
<path opacity="0.2" d="M111.035 117.461H101.707V127.625H111.035V117.461Z" fill="white"/>
<path d="M126.517 117.461H116.29V127.625H126.517V117.461Z" fill="#407BFF"/>
<path opacity="0.2" d="M126.518 117.461H117.19V127.625H126.518V117.461Z" fill="white"/>
<path d="M95.545 132.426H85.3171V142.59H95.545V132.426Z" fill="#407BFF"/>
<path opacity="0.2" d="M95.5449 132.426H86.2175V142.59H95.5449V132.426Z" fill="white"/>
<path d="M111.034 132.426H100.807V142.59H111.034V132.426Z" fill="#407BFF"/>
<path opacity="0.2" d="M111.035 132.426H101.707V142.59H111.035V132.426Z" fill="white"/>
<path d="M126.517 132.426H116.29V142.59H126.517V132.426Z" fill="#407BFF"/>
<path opacity="0.2" d="M126.518 132.426H117.19V142.59H126.518V132.426Z" fill="white"/>
<path d="M95.545 159.825H85.3171V169.988H95.545V159.825Z" fill="#407BFF"/>
<path opacity="0.2" d="M95.5449 159.825H86.2175V169.988H95.5449V159.825Z" fill="white"/>
<path d="M111.034 159.825H100.807V169.988H111.034V159.825Z" fill="#407BFF"/>
<path opacity="0.2" d="M111.035 159.825H101.707V169.988H111.035V159.825Z" fill="white"/>
<path d="M126.517 159.825H116.29V169.988H126.517V159.825Z" fill="#407BFF"/>
<path opacity="0.2" d="M126.518 159.825H117.19V169.988H126.518V159.825Z" fill="white"/>
<path d="M95.545 174.79H85.3171V184.953H95.545V174.79Z" fill="#407BFF"/>
<path opacity="0.2" d="M95.5449 174.79H86.2175V184.953H95.5449V174.79Z" fill="white"/>
<path d="M111.034 174.79H100.807V184.953H111.034V174.79Z" fill="#407BFF"/>
<path opacity="0.2" d="M111.035 174.79H101.707V184.953H111.035V174.79Z" fill="white"/>
<path d="M126.517 174.79H116.29V184.953H126.517V174.79Z" fill="#407BFF"/>
<path opacity="0.2" d="M126.518 174.79H117.19V184.953H126.518V174.79Z" fill="white"/>
<path d="M95.545 205.247H85.3171V215.41H95.545V205.247Z" fill="#407BFF"/>
<path opacity="0.2" d="M95.5449 205.247H86.2175V215.41H95.5449V205.247Z" fill="white"/>
<path d="M111.034 205.247H100.807V215.41H111.034V205.247Z" fill="#407BFF"/>
<path opacity="0.2" d="M111.035 205.247H101.707V215.41H111.035V205.247Z" fill="white"/>
<path d="M126.517 205.247H116.29V215.41H126.517V205.247Z" fill="#407BFF"/>
<path opacity="0.2" d="M126.518 205.247H117.19V215.41H126.518V205.247Z" fill="white"/>
<path d="M95.545 220.211H85.3171V230.375H95.545V220.211Z" fill="#407BFF"/>
<path opacity="0.2" d="M95.5449 220.211H86.2175V230.375H95.5449V220.211Z" fill="white"/>
<path d="M111.034 220.211H100.807V230.375H111.034V220.211Z" fill="#407BFF"/>
<path opacity="0.2" d="M111.035 220.211H101.707V230.375H111.035V220.211Z" fill="white"/>
<path d="M126.517 220.211H116.29V230.375H126.517V220.211Z" fill="#407BFF"/>
<path opacity="0.2" d="M126.518 220.211H117.19V230.375H126.518V220.211Z" fill="white"/>
<path opacity="0.2" d="M146.698 149.735H80.1494V150.676H146.698V149.735Z" fill="white"/>
<path opacity="0.2" d="M146.698 196.572H80.1494V197.514H146.698V196.572Z" fill="white"/>
<path d="M238.325 127.625H192.3V238.916H238.325V127.625Z" fill="#407BFF"/>
<path opacity="0.4" d="M227.311 127.625H192.3V238.916H227.311V127.625Z" fill="white"/>
<path d="M207.944 136.767H195.693V142.676H207.944V136.767Z" fill="#407BFF"/>
<path opacity="0.2" d="M207.944 136.767H196.506V142.676H207.944V136.767Z" fill="white"/>
<path d="M222.116 136.767H209.866V142.676H222.116V136.767Z" fill="#407BFF"/>
<path opacity="0.2" d="M222.116 136.767H210.679V142.676H222.116V136.767Z" fill="white"/>
<path d="M207.944 147.892H195.693V153.802H207.944V147.892Z" fill="#407BFF"/>
<path opacity="0.2" d="M207.944 147.892H196.506V153.802H207.944V147.892Z" fill="white"/>
<path d="M222.116 147.892H209.866V153.802H222.116V147.892Z" fill="#407BFF"/>
<path opacity="0.2" d="M222.116 147.892H210.679V153.802H222.116V147.892Z" fill="white"/>
<path d="M207.944 162.109H195.693V168.018H207.944V162.109Z" fill="#407BFF"/>
<path opacity="0.2" d="M207.944 162.109H196.506V168.018H207.944V162.109Z" fill="white"/>
<path d="M222.116 162.109H209.866V168.018H222.116V162.109Z" fill="#407BFF"/>
<path opacity="0.2" d="M222.116 162.109H210.679V168.018H222.116V162.109Z" fill="white"/>
<path d="M207.944 170.276H195.693V176.185H207.944V170.276Z" fill="#407BFF"/>
<path opacity="0.2" d="M207.944 170.276H196.506V176.185H207.944V170.276Z" fill="white"/>
<path d="M222.116 170.276H209.866V176.185H222.116V170.276Z" fill="#407BFF"/>
<path opacity="0.2" d="M222.116 170.276H210.679V176.185H222.116V170.276Z" fill="white"/>
<path d="M207.944 183.698H195.693V189.607H207.944V183.698Z" fill="#407BFF"/>
<path opacity="0.2" d="M207.944 183.698H196.506V189.607H207.944V183.698Z" fill="white"/>
<path d="M222.116 183.698H209.866V189.607H222.116V183.698Z" fill="#407BFF"/>
<path opacity="0.2" d="M222.116 183.698H210.679V189.607H222.116V183.698Z" fill="white"/>
<path d="M207.944 191.865H195.693V197.774H207.944V191.865Z" fill="#407BFF"/>
<path opacity="0.2" d="M207.944 191.865H196.506V197.774H207.944V191.865Z" fill="white"/>
<path d="M222.116 191.865H209.866V197.774H222.116V191.865Z" fill="#407BFF"/>
<path opacity="0.2" d="M222.116 191.865H210.679V197.774H222.116V191.865Z" fill="white"/>
<path d="M207.944 206.469H195.693V212.379H207.944V206.469Z" fill="#407BFF"/>
<path opacity="0.2" d="M207.944 206.469H196.506V212.379H207.944V206.469Z" fill="white"/>
<path d="M222.116 206.469H209.866V212.379H222.116V206.469Z" fill="#407BFF"/>
<path opacity="0.2" d="M222.116 206.469H210.679V212.379H222.116V206.469Z" fill="white"/>
<path d="M207.944 217.26H195.693V223.17H207.944V217.26Z" fill="#407BFF"/>
<path opacity="0.2" d="M207.944 217.26H196.506V223.17H207.944V217.26Z" fill="white"/>
<path d="M222.116 217.26H209.866V223.17H222.116V217.26Z" fill="#407BFF"/>
<path opacity="0.2" d="M222.116 217.26H210.679V223.17H222.116V217.26Z" fill="white"/>
<path d="M238.332 124.333H190.136V127.885H238.332V124.333Z" fill="#407BFF"/>
<path opacity="0.2" d="M238.331 124.333H227.317V127.885H238.331V124.333Z" fill="black"/>
<path d="M192.299 176.766H187.965V183.504H192.299V176.766Z" fill="#E0E0E0"/>
<path d="M192.299 187.791H187.965V194.529H192.299V187.791Z" fill="#E0E0E0"/>
<path d="M192.299 198.509H187.965V205.247H192.299V198.509Z" fill="#E0E0E0"/>
<path d="M192.299 209.841H187.965V216.579H192.299V209.841Z" fill="#E0E0E0"/>
<path d="M192.299 220.866H187.965V227.604H192.299V220.866Z" fill="#E0E0E0"/>
<path d="M192.3 169.995H146.698V238.916H192.3V169.995Z" fill="#407BFF"/>
<path opacity="0.3" d="M184.599 169.988H146.698V238.916H184.599V169.988Z" fill="white"/>
<path d="M180.923 176.766H150.105V183.504H180.923V176.766Z" fill="#407BFF"/>
<path d="M180.923 187.791H150.105V194.529H180.923V187.791Z" fill="#407BFF"/>
<path d="M180.923 198.816H150.105V205.554H180.923V198.816Z" fill="#407BFF"/>
<path d="M180.923 209.841H150.105V216.579H180.923V209.841Z" fill="#407BFF"/>
<path d="M180.923 220.866H150.105V227.604H180.923V220.866Z" fill="#407BFF"/>
<g opacity="0.1">
<path opacity="0.1" d="M180.922 176.766H151.24V183.504H180.922V176.766Z" fill="white"/>
<path opacity="0.1" d="M180.923 187.791H151.24V194.529H180.923V187.791Z" fill="white"/>
<path opacity="0.1" d="M180.923 198.816H151.24V205.554H180.923V198.816Z" fill="white"/>
<path opacity="0.1" d="M180.923 209.841H151.24V216.579H180.923V209.841Z" fill="white"/>
<path opacity="0.1" d="M180.923 220.866H151.24V227.604H180.923V220.866Z" fill="white"/>
</g>
<path d="M52.8059 191.163H22.2097V238.916H71.0372V191.163V169.988L52.8059 191.163Z" fill="#407BFF"/>
<path d="M80.1494 169.988H71.0371V238.916H80.1494V169.988Z" fill="#407BFF"/>
<path opacity="0.7" d="M80.1494 169.988H71.0371V238.916H80.1494V169.988Z" fill="white"/>
<path opacity="0.7" d="M146.698 111.965H134.595V238.916H146.698V111.965Z" fill="white"/>
<path opacity="0.6" d="M192.3 169.988H184.598V238.916H192.3V169.988Z" fill="white"/>
<path opacity="0.7" d="M238.331 127.885H227.317V238.916H238.331V127.885Z" fill="white"/>
<path opacity="0.5" d="M244.776 108.807H243.042V115.919H244.776V108.807Z" fill="white"/>
<path opacity="0.5" d="M244.776 120.773H243.042V127.885H244.776V120.773Z" fill="white"/>
<path opacity="0.5" d="M244.776 133.214H243.042V140.326H244.776V133.214Z" fill="white"/>
<path opacity="0.5" d="M244.776 145.655H243.042V152.766H244.776V145.655Z" fill="white"/>
<path opacity="0.5" d="M244.776 158.089H243.042V165.2H244.776V158.089Z" fill="white"/>
<path opacity="0.5" d="M244.776 170.529H243.042V177.641H244.776V170.529Z" fill="white"/>
<path opacity="0.5" d="M244.776 184.239H243.042V191.35H244.776V184.239Z" fill="white"/>
<path opacity="0.5" d="M244.776 197.948H243.042V205.06H244.776V197.948Z" fill="white"/>
<path opacity="0.5" d="M244.776 211.651H243.042V218.762H244.776V211.651Z" fill="white"/>
<path opacity="0.5" d="M244.776 225.36H243.042V232.472H244.776V225.36Z" fill="white"/>
<path d="M312.386 99.3313H258.337V238.916H312.386V99.3313Z" fill="#407BFF"/>
<path d="M292.374 99.3313H238.325V238.916H292.374V99.3313Z" fill="#407BFF"/>
<path opacity="0.7" d="M312.386 101.335H292.381V238.916H312.386V101.335Z" fill="white"/>
<path d="M312.386 108.807H297.326V115.919H312.386V108.807Z" fill="#407BFF"/>
<path d="M312.386 120.506H297.326V127.618H312.386V120.506Z" fill="#407BFF"/>
<path d="M312.386 132.212H297.326V139.324H312.386V132.212Z" fill="#407BFF"/>
<path d="M312.386 145.648H297.326V152.76H312.386V145.648Z" fill="#407BFF"/>
<path d="M312.386 158.089H297.326V165.2H312.386V158.089Z" fill="#407BFF"/>
<path d="M312.386 170.529H297.326V177.641H312.386V170.529Z" fill="#407BFF"/>
<path d="M312.386 184.232H297.326V191.344H312.386V184.232Z" fill="#407BFF"/>
<path d="M312.386 197.941H297.326V205.053H312.386V197.941Z" fill="#407BFF"/>
<path d="M312.386 211.651H297.326V218.762H312.386V211.651Z" fill="#407BFF"/>
<path d="M312.386 225.36H297.326V232.472H312.386V225.36Z" fill="#407BFF"/>
<path opacity="0.3" d="M312.386 108.807H297.326V115.919H312.386V108.807Z" fill="white"/>
<path opacity="0.3" d="M312.386 120.506H297.326V127.618H312.386V120.506Z" fill="white"/>
<path opacity="0.3" d="M312.386 132.212H297.326V139.324H312.386V132.212Z" fill="white"/>
<path opacity="0.3" d="M312.386 145.648H297.326V152.76H312.386V145.648Z" fill="white"/>
<path opacity="0.3" d="M312.386 158.089H297.326V165.2H312.386V158.089Z" fill="white"/>
<path opacity="0.3" d="M312.386 170.529H297.326V177.641H312.386V170.529Z" fill="white"/>
<path opacity="0.3" d="M312.386 184.232H297.326V191.344H312.386V184.232Z" fill="white"/>
<path opacity="0.3" d="M312.386 197.941H297.326V205.053H312.386V197.941Z" fill="white"/>
<path opacity="0.3" d="M312.386 211.651H297.326V218.762H312.386V211.651Z" fill="white"/>
<path opacity="0.3" d="M312.386 225.36H297.326V232.472H312.386V225.36Z" fill="white"/>
<path opacity="0.4" d="M292.374 99.3313H238.325V238.916H292.374V99.3313Z" fill="white"/>
<path d="M287.663 108.807H243.042V115.919H287.663V108.807Z" fill="#407BFF"/>
<path opacity="0.2" d="M287.663 108.807H244.776V115.919H287.663V108.807Z" fill="white"/>
<path d="M287.663 120.773H243.042V127.885H287.663V120.773Z" fill="#407BFF"/>
<path opacity="0.2" d="M287.663 120.773H244.776V127.885H287.663V120.773Z" fill="white"/>
<path d="M287.663 133.214H243.042V140.326H287.663V133.214Z" fill="#407BFF"/>
<path opacity="0.2" d="M287.663 133.214H244.776V140.326H287.663V133.214Z" fill="white"/>
<path d="M287.663 145.655H243.042V152.766H287.663V145.655Z" fill="#407BFF"/>
<path opacity="0.2" d="M287.663 145.655H244.776V152.766H287.663V145.655Z" fill="white"/>
<path d="M287.663 158.089H243.042V165.2H287.663V158.089Z" fill="#407BFF"/>
<path opacity="0.2" d="M287.663 158.089H244.776V165.2H287.663V158.089Z" fill="white"/>
<path d="M287.663 170.529H243.042V177.641H287.663V170.529Z" fill="#407BFF"/>
<path opacity="0.2" d="M287.663 170.529H244.776V177.641H287.663V170.529Z" fill="white"/>
<path d="M287.663 184.239H243.042V191.35H287.663V184.239Z" fill="#407BFF"/>
<path opacity="0.2" d="M287.663 184.239H244.776V191.35H287.663V184.239Z" fill="white"/>
<path d="M287.663 197.948H243.042V205.06H287.663V197.948Z" fill="#407BFF"/>
<path opacity="0.2" d="M287.663 197.948H244.776V205.06H287.663V197.948Z" fill="white"/>
<path d="M287.663 211.651H243.042V218.762H287.663V211.651Z" fill="#407BFF"/>
<path opacity="0.2" d="M287.663 211.651H244.776V218.762H287.663V211.651Z" fill="white"/>
<path d="M287.663 225.36H243.042V232.472H287.663V225.36Z" fill="#407BFF"/>
<path opacity="0.2" d="M287.663 225.36H244.776V232.472H287.663V225.36Z" fill="white"/>
<path d="M311.23 95.1843H292.381V97.9222H311.23V95.1843Z" fill="#407BFF"/>
<path d="M311.23 94.5166H238.325V97.9222H311.23V94.5166Z" fill="#F0F0F0"/>
<path d="M313.79 97.929H236.799V101.335H313.79V97.929Z" fill="#407BFF"/>
<path d="M313.79 91.7788H236.799V95.1844H313.79V91.7788Z" fill="#407BFF"/>
<path opacity="0.05" d="M313.79 97.929H236.799V101.335H313.79V97.929Z" fill="black"/>
<path opacity="0.05" d="M313.79 91.7788H236.799V95.1844H313.79V91.7788Z" fill="black"/>
<path opacity="0.2" d="M238.325 157.281H192.3V158.296H238.325V157.281Z" fill="white"/>
<path opacity="0.2" d="M238.325 179.27H192.3V180.285H238.325V179.27Z" fill="white"/>
<path opacity="0.2" d="M238.325 201.447H192.3V202.462H238.325V201.447Z" fill="white"/>
<path opacity="0.2" d="M147.477 109.862H134.595V111.966H147.477V109.862Z" fill="black"/>
<path opacity="0.2" d="M147.477 105.648H134.595V107.752H147.477V105.648Z" fill="black"/>
<path opacity="0.2" d="M313.791 97.929H292.381V101.335H313.791V97.929Z" fill="black"/>
<path opacity="0.2" d="M313.791 91.7788H292.381V95.1844H313.791V91.7788Z" fill="black"/>
<path opacity="0.4" d="M52.8059 191.163H22.2097V238.916H71.0372V191.163V169.988L52.8059 191.163Z" fill="white"/>
<path d="M33.9025 200.846H26.6382V208.065H33.9025V200.846Z" fill="#407BFF"/>
<path d="M48.6864 200.846H41.4221V208.065H48.6864V200.846Z" fill="#407BFF"/>
<path d="M63.4704 200.846H56.2061V208.065H63.4704V200.846Z" fill="#407BFF"/>
<path d="M33.9025 212.993H26.6382V220.211H33.9025V212.993Z" fill="#407BFF"/>
<path d="M48.6864 212.993H41.4221V220.211H48.6864V212.993Z" fill="#407BFF"/>
<path d="M63.4704 212.993H56.2061V220.211H63.4704V212.993Z" fill="#407BFF"/>
<path d="M33.9025 225.14H26.6382V232.358H33.9025V225.14Z" fill="#407BFF"/>
<path d="M48.6864 225.14H41.4221V232.358H48.6864V225.14Z" fill="#407BFF"/>
<path d="M63.4704 225.14H56.2061V232.358H63.4704V225.14Z" fill="#407BFF"/>
<path opacity="0.2" d="M34.7089 200.846H27.4446V208.065H34.7089V200.846Z" fill="white"/>
<path opacity="0.2" d="M49.4862 200.846H42.2219V208.065H49.4862V200.846Z" fill="white"/>
<path opacity="0.2" d="M64.2702 200.846H57.0059V208.065H64.2702V200.846Z" fill="white"/>
<path opacity="0.2" d="M34.7089 212.993H27.4446V220.211H34.7089V212.993Z" fill="white"/>
<path opacity="0.2" d="M49.4862 212.993H42.2219V220.211H49.4862V212.993Z" fill="white"/>
<path opacity="0.2" d="M64.2702 212.993H57.0059V220.211H64.2702V212.993Z" fill="white"/>
<path opacity="0.2" d="M34.7089 225.14H27.4446V232.358H34.7089V225.14Z" fill="white"/>
<path opacity="0.2" d="M49.4862 225.14H42.2219V232.358H49.4862V225.14Z" fill="white"/>
<path opacity="0.2" d="M64.2702 225.14H57.0059V232.358H64.2702V225.14Z" fill="white"/>
<path d="M164.035 244.452L159.828 265.66H173.947L172.516 244.452H164.035Z" fill="#407BFF"/>
<path d="M177.233 244.452L183.281 265.66H192.743L184.988 244.452H177.233Z" fill="#407BFF"/>
<path d="M190.31 244.452L202.756 265.66H213.494L197.319 244.452H190.31Z" fill="#407BFF"/>
<path d="M202.937 244.452L223.561 265.66H236.403L210.632 244.452H202.937Z" fill="#407BFF"/>
<path d="M158.767 244.452L152.719 265.66H143.257L151.012 244.452H158.767Z" fill="#407BFF"/>
<path d="M145.69 244.452L133.244 265.66H122.506L138.681 244.452H145.69Z" fill="#407BFF"/>
<path d="M133.063 244.452L112.439 265.66H99.5972L125.368 244.452H133.063Z" fill="#407BFF"/>
<path opacity="0.4" d="M164.035 244.452L159.828 265.66H173.947L172.516 244.452H164.035Z" fill="white"/>
<path opacity="0.4" d="M177.233 244.452L183.281 265.66H192.743L184.988 244.452H177.233Z" fill="white"/>
<path opacity="0.4" d="M190.31 244.452L202.756 265.66H213.494L197.319 244.452H190.31Z" fill="white"/>
<path opacity="0.4" d="M202.937 244.452L223.561 265.66H236.403L210.632 244.452H202.937Z" fill="white"/>
<path opacity="0.4" d="M158.767 244.452L152.719 265.66H143.257L151.012 244.452H158.767Z" fill="white"/>
<path opacity="0.4" d="M145.69 244.452L133.244 265.66H122.506L138.681 244.452H145.69Z" fill="white"/>
<path opacity="0.4" d="M133.063 244.452L112.439 265.66H99.5972L125.368 244.452H133.063Z" fill="white"/>
<path d="M67.6435 236.465C70.1164 236.378 72.5439 235.78 74.7711 234.708C76.9982 233.637 78.9761 232.115 80.5784 230.242C82.1807 228.368 83.3723 226.183 84.0772 223.826C84.782 221.469 84.9846 218.991 84.672 216.552C84.2285 213.073 82.7635 209.821 81.7286 206.469C79.7731 200.132 79.1481 192.98 74.6592 188.072C73.2738 186.562 71.5868 185.356 69.7059 184.531C67.8251 183.706 65.7918 183.28 63.7358 183.28C61.6799 183.28 59.6466 183.706 57.7657 184.531C55.8849 185.356 54.1979 186.562 52.8125 188.072C49.9027 191.244 48.5251 195.531 47.927 199.784C47.3289 204.038 47.4096 208.345 47.04 212.599C46.704 216.145 46.0253 219.684 46.1731 223.243C46.3209 226.802 47.3961 230.509 50.0237 232.933C51.3651 234.069 52.8631 235.009 54.4723 235.724C56.0215 236.581 57.7012 237.181 59.4451 237.5C60.319 237.654 61.2165 237.611 62.0714 237.374C62.9263 237.137 63.7167 236.712 64.3843 236.131C65.4486 236.4 66.5465 236.512 67.6435 236.465Z" fill="#407BFF"/>
<path opacity="0.7" d="M67.6435 236.465C70.1164 236.378 72.5439 235.78 74.7711 234.708C76.9982 233.637 78.9761 232.115 80.5784 230.242C82.1807 228.368 83.3723 226.183 84.0772 223.826C84.782 221.469 84.9846 218.991 84.672 216.552C84.2285 213.073 82.7635 209.821 81.7286 206.469C79.7731 200.132 79.1481 192.98 74.6592 188.072C73.2738 186.562 71.5868 185.356 69.7059 184.531C67.8251 183.706 65.7918 183.28 63.7358 183.28C61.6799 183.28 59.6466 183.706 57.7657 184.531C55.8849 185.356 54.1979 186.562 52.8125 188.072C49.9027 191.244 48.5251 195.531 47.927 199.784C47.3289 204.038 47.4096 208.345 47.04 212.599C46.704 216.145 46.0253 219.684 46.1731 223.243C46.3209 226.802 47.3961 230.509 50.0237 232.933C51.3651 234.069 52.8631 235.009 54.4723 235.724C56.0215 236.581 57.7012 237.181 59.4451 237.5C60.319 237.654 61.2165 237.611 62.0714 237.374C62.9263 237.137 63.7167 236.712 64.3843 236.131C65.4486 236.4 66.5465 236.512 67.6435 236.465Z" fill="white"/>
<path d="M59.4248 249.413V248.525L60.9099 247.276C60.9099 247.276 62.684 229.246 62.9864 224.024C63.2888 218.803 63.6584 210.576 61.723 204.606C63.4376 208.676 64.658 212.936 65.3586 217.293C65.3586 217.293 67.6568 209.08 71.7358 203.851C71.7358 203.851 66.763 216.472 67.435 228.211C67.7701 234.883 68.6125 241.519 69.955 248.064L70.8421 248.652L70.916 249.393L59.4248 249.413Z" fill="#407BFF"/>
<path d="M63.961 220.445C63.961 220.445 62.6708 214.756 59.1965 211.938C59.1965 211.938 62.1063 215.944 63.0605 222.676C64.0148 229.407 65.0295 225.133 65.0295 225.133L63.961 220.445Z" fill="#407BFF"/>
<path d="M62.4423 235.837C62.0286 234.441 61.103 233.25 59.8484 232.498C59.8484 232.498 61.1924 233.781 61.8106 237.887C62.4289 241.994 63.9745 239.73 63.9745 239.73L64.0954 237.467L62.4423 235.837Z" fill="#407BFF"/>
<path opacity="0.2" d="M61.824 237.881C61.152 233.774 59.8618 232.492 59.8618 232.492C60.8176 233.078 61.5901 233.918 62.0928 234.916C62.496 230.542 62.8724 226.181 63 224.025C63 223.597 63.0471 223.143 63.0672 222.689C62.113 215.931 59.21 211.951 59.21 211.951C61.226 213.587 62.5095 216.198 63.242 218.095C63.3024 213.647 63.0404 208.626 61.7501 204.619C63.4647 208.69 64.6851 212.949 65.3856 217.307C65.3856 217.307 67.6839 209.093 71.7629 203.865C71.7629 203.865 66.7901 216.485 67.4621 228.225C67.7972 234.896 68.6396 241.533 69.9821 248.078L70.8692 248.665L70.9431 249.407H59.425V248.518L60.9101 247.27C60.9101 247.27 61.3335 242.923 61.824 237.881Z" fill="black"/>
<path d="M265.588 239.323C262.796 239.224 260.056 238.547 257.542 237.337C255.028 236.127 252.795 234.409 250.986 232.293C249.177 230.178 247.832 227.711 247.036 225.05C246.239 222.39 246.01 219.593 246.362 216.839C246.866 212.913 248.519 209.24 249.688 205.487C251.899 198.328 252.605 190.255 257.672 184.719C259.234 183.014 261.138 181.652 263.261 180.719C265.383 179.787 267.679 179.306 269.999 179.306C272.32 179.306 274.616 179.787 276.738 180.719C278.861 181.652 280.765 183.014 282.327 184.719C285.613 188.292 287.172 193.14 287.851 197.934C288.53 202.729 288.422 207.597 288.873 212.425C289.249 216.432 290.015 220.438 289.854 224.445C289.692 228.452 288.469 232.645 285.506 235.39C283.982 236.677 282.28 237.741 280.452 238.548C278.702 239.517 276.805 240.193 274.834 240.552C273.847 240.726 272.833 240.677 271.868 240.409C270.902 240.141 270.01 239.66 269.257 239.003C268.056 239.286 266.82 239.394 265.588 239.323Z" fill="#407BFF"/>
<path opacity="0.7" d="M265.588 239.323C262.796 239.224 260.056 238.547 257.542 237.337C255.028 236.127 252.795 234.409 250.986 232.293C249.177 230.178 247.832 227.711 247.036 225.05C246.239 222.39 246.01 219.593 246.362 216.839C246.866 212.913 248.519 209.24 249.688 205.487C251.899 198.328 252.605 190.255 257.672 184.719C259.234 183.014 261.138 181.652 263.261 180.719C265.383 179.787 267.679 179.306 269.999 179.306C272.32 179.306 274.616 179.787 276.738 180.719C278.861 181.652 280.765 183.014 282.327 184.719C285.613 188.292 287.172 193.14 287.851 197.934C288.53 202.729 288.422 207.597 288.873 212.425C289.249 216.432 290.015 220.438 289.854 224.445C289.692 228.452 288.469 232.645 285.506 235.39C283.982 236.677 282.28 237.741 280.452 238.548C278.702 239.517 276.805 240.193 274.834 240.552C273.847 240.726 272.833 240.677 271.868 240.409C270.902 240.141 270.01 239.66 269.257 239.003C268.056 239.286 266.82 239.394 265.588 239.323Z" fill="white"/>
<path d="M274.848 253.934V252.939L273.175 251.523C273.175 251.523 271.159 231.15 270.829 225.28C270.5 219.41 270.077 210.095 272.254 203.357C270.319 207.957 268.945 212.77 268.161 217.694C268.161 217.694 265.568 208.425 260.964 202.516C260.964 202.516 266.576 216.766 265.823 230.021C265.439 237.547 264.487 245.034 262.974 252.418L261.972 253.086L261.885 253.914L274.848 253.934Z" fill="#407BFF"/>
<path d="M269.741 221.24C269.741 221.24 271.192 214.816 275.117 211.631C275.117 211.631 271.831 216.125 270.755 223.757C269.68 231.39 268.524 226.522 268.524 226.522L269.741 221.24Z" fill="#407BFF"/>
<path d="M271.488 238.615C271.954 237.035 272.999 235.686 274.418 234.836C274.418 234.836 272.919 236.285 272.207 240.919C271.495 245.553 269.754 242.976 269.754 242.976L269.626 240.425L271.488 238.615Z" fill="#407BFF"/>
<path opacity="0.2" d="M272.16 240.919C272.872 236.285 274.371 234.836 274.371 234.836C273.286 235.494 272.411 236.443 271.844 237.574C271.394 232.639 270.97 227.711 270.829 225.28C270.829 224.792 270.776 224.278 270.749 223.751C271.824 216.125 275.11 211.631 275.11 211.631C272.825 213.48 271.38 216.425 270.567 218.569C270.5 213.547 270.796 207.884 272.254 203.357C270.319 207.957 268.945 212.77 268.161 217.694C268.161 217.694 265.568 208.425 260.964 202.516C260.964 202.516 266.576 216.766 265.823 230.021C265.439 237.547 264.487 245.034 262.974 252.418L261.972 253.086L261.885 253.914H274.848V252.919L273.175 251.503C273.175 251.503 272.704 246.615 272.16 240.919Z" fill="black"/>
</svg>
