<svg width="292" height="253" viewBox="0 0 292 253" fill="none" xmlns="http://www.w3.org/2000/svg">
<path d="M292 221.922H0V222.091H292V221.922Z" fill="#EBEBEB"/>
<path d="M80.3934 226.528H61.0513V226.697H80.3934V226.528Z" fill="#EBEBEB"/>
<path d="M123.744 232.724H99.9458V232.893H123.744V232.724Z" fill="#EBEBEB"/>
<path d="M60.4674 230.606H30.6367V230.776H60.4674V230.606Z" fill="#EBEBEB"/>
<path d="M262.741 227.664H208.348V227.833H262.741V227.664Z" fill="#EBEBEB"/>
<path d="M203.15 227.664H199.454V227.833H203.15V227.664Z" fill="#EBEBEB"/>
<path d="M186.553 230.519H161.891V230.688H186.553V230.519Z" fill="#EBEBEB"/>
<path d="M138.408 191.754H25.6433C24.7599 191.752 23.9132 191.345 23.2891 190.62C22.665 189.896 22.3145 188.915 22.3145 187.892V4.2962C22.3221 3.27891 22.6761 2.30622 23.2993 1.58939C23.9226 0.872571 24.7649 0.469516 25.6433 0.467773H138.408C139.292 0.467773 140.14 0.874688 140.766 1.599C141.391 2.32331 141.742 3.30569 141.742 4.33002V187.892C141.742 188.916 141.391 189.898 140.766 190.623C140.14 191.347 139.292 191.754 138.408 191.754ZM25.6433 0.603054C24.7986 0.604846 23.989 0.994734 23.3923 1.68714C22.7956 2.37955 22.4605 3.31789 22.4605 4.2962V187.892C22.4605 188.87 22.7956 189.808 23.3923 190.501C23.989 191.193 24.7986 191.583 25.6433 191.585H138.408C139.253 191.581 140.062 191.191 140.659 190.499C141.256 189.807 141.593 188.87 141.596 187.892V4.2962C141.593 3.31782 141.256 2.38052 140.659 1.68869C140.062 0.996862 139.253 0.606618 138.408 0.603054H25.6433Z" fill="#4A8CE1"/>
<path d="M264.733 191.754H151.963C151.079 191.75 150.233 191.342 149.608 190.619C148.984 189.895 148.631 188.915 148.628 187.892V4.2962C148.637 3.2783 148.993 2.30561 149.617 1.58897C150.241 0.872335 151.084 0.469497 151.963 0.467773H264.733C265.611 0.471294 266.451 0.875135 267.073 1.59177C267.695 2.3084 268.048 3.28008 268.056 4.2962V187.892C268.057 188.398 267.972 188.9 267.805 189.368C267.638 189.836 267.394 190.261 267.085 190.62C266.777 190.979 266.41 191.263 266.007 191.458C265.603 191.652 265.17 191.753 264.733 191.754ZM151.963 0.603054C151.118 0.606618 150.309 0.996862 149.712 1.68869C149.114 2.38052 148.777 3.31782 148.774 4.2962V187.892C148.777 188.87 149.114 189.807 149.712 190.499C150.309 191.191 151.118 191.581 151.963 191.585H264.733C265.578 191.581 266.387 191.191 266.985 190.499C267.582 189.807 267.919 188.87 267.922 187.892V4.2962C267.919 3.31782 267.582 2.38052 266.985 1.68869C266.387 0.996862 265.578 0.606618 264.733 0.603054H151.963Z" fill="#4A8CE1"/>
<path d="M41.2715 78.998H91.9393C91.9393 78.998 89.212 71.6522 80.1016 73.9385C80.1016 73.9385 78.1861 65.5849 71.2365 66.7416C71.2365 66.7416 65.4841 59.5176 57.092 62.3179C48.7 65.1182 49.4241 73.9385 49.4241 73.9385C49.4241 73.9385 43.2162 72.0581 41.2715 78.998Z" fill="#FAFAFA"/>
<path d="M176.888 34.2472H126.226C126.226 34.2472 128.947 26.8947 138.057 29.181C138.057 29.181 139.973 20.8274 146.928 21.9841C146.928 21.9841 152.681 14.7669 161.067 17.5672C169.453 20.3675 168.741 29.181 168.741 29.181C168.741 29.181 174.972 27.3073 176.888 34.2472Z" fill="#FAFAFA"/>
<path d="M214.252 32.333H253.012C253.012 32.333 251.529 26.171 245.922 28.2002C245.922 28.2002 247.09 19.9075 242.956 18.947C238.821 17.9865 237.507 24.2974 237.507 24.2974C236.561 23.0554 235.334 22.1441 233.965 21.666C232.596 21.188 231.138 21.1623 229.757 21.5917C228.399 22.0013 227.161 22.8276 226.175 23.9835C225.188 25.1393 224.489 26.5821 224.151 28.1596C224.151 28.1596 217.248 23.5804 214.252 32.333Z" fill="#FAFAFA"/>
<path d="M73.9927 113.542H26.8406V221.746H73.9927V113.542Z" fill="#E6E6E6"/>
<path d="M65.4196 113.542H26.8406V221.746H65.4196V113.542Z" fill="#F0F0F0"/>
<path d="M74.5478 113.542H25.8247V115.307H74.5478V113.542Z" fill="#E0E0E0"/>
<path d="M74.5478 110.011H25.8247V111.776H74.5478V110.011Z" fill="#E0E0E0"/>
<path d="M73.5255 111.776H26.8406V113.542H73.5255V111.776Z" fill="#F0F0F0"/>
<path d="M37.7499 119.907H30.5024V128.429H37.7499V119.907Z" fill="#E6E6E6"/>
<path d="M37.744 119.907H31.1389V128.429H37.744V119.907Z" fill="#F5F5F5"/>
<path d="M48.723 119.907H41.4756V128.429H48.723V119.907Z" fill="#E6E6E6"/>
<path d="M48.7173 119.907H42.1123V128.429H48.7173V119.907Z" fill="#F5F5F5"/>
<path d="M59.6964 119.907H52.449V128.429H59.6964V119.907Z" fill="#E6E6E6"/>
<path d="M59.6907 119.907H53.0857V128.429H59.6907V119.907Z" fill="#F5F5F5"/>
<path d="M37.7499 132.454H30.5024V140.977H37.7499V132.454Z" fill="#E6E6E6"/>
<path d="M37.744 132.454H31.1389V140.977H37.744V132.454Z" fill="#F5F5F5"/>
<path d="M48.723 132.454H41.4756V140.977H48.723V132.454Z" fill="#E6E6E6"/>
<path d="M48.7173 132.454H42.1123V140.977H48.7173V132.454Z" fill="#F5F5F5"/>
<path d="M59.6964 132.454H52.449V140.977H59.6964V132.454Z" fill="#E6E6E6"/>
<path d="M59.6907 132.454H53.0857V140.977H59.6907V132.454Z" fill="#F5F5F5"/>
<path d="M37.7499 155.431H30.5024V163.954H37.7499V155.431Z" fill="#E6E6E6"/>
<path d="M37.744 155.431H31.1389V163.954H37.744V155.431Z" fill="#F5F5F5"/>
<path d="M48.723 155.431H41.4756V163.954H48.723V155.431Z" fill="#E6E6E6"/>
<path d="M48.7173 155.431H42.1123V163.954H48.7173V155.431Z" fill="#F5F5F5"/>
<path d="M59.6964 155.431H52.449V163.954H59.6964V155.431Z" fill="#E6E6E6"/>
<path d="M59.6907 155.431H53.0857V163.954H59.6907V155.431Z" fill="#F5F5F5"/>
<path d="M37.7499 167.979H30.5024V176.501H37.7499V167.979Z" fill="#E6E6E6"/>
<path d="M37.744 167.979H31.1389V176.501H37.744V167.979Z" fill="#F5F5F5"/>
<path d="M48.723 167.979H41.4756V176.501H48.723V167.979Z" fill="#E6E6E6"/>
<path d="M48.7173 167.979H42.1123V176.501H48.7173V167.979Z" fill="#F5F5F5"/>
<path d="M59.6964 167.979H52.449V176.501H59.6964V167.979Z" fill="#E6E6E6"/>
<path d="M59.6907 167.979H53.0857V176.501H59.6907V167.979Z" fill="#F5F5F5"/>
<path d="M37.7499 193.513H30.5024V202.035H37.7499V193.513Z" fill="#E6E6E6"/>
<path d="M37.744 193.513H31.1389V202.035H37.744V193.513Z" fill="#F5F5F5"/>
<path d="M48.723 193.513H41.4756V202.035H48.723V193.513Z" fill="#E6E6E6"/>
<path d="M48.7173 193.513H42.1123V202.035H48.7173V193.513Z" fill="#F5F5F5"/>
<path d="M59.6964 193.513H52.449V202.035H59.6964V193.513Z" fill="#E6E6E6"/>
<path d="M59.6907 193.513H53.0857V202.035H59.6907V193.513Z" fill="#F5F5F5"/>
<path d="M37.7499 206.06H30.5024V214.583H37.7499V206.06Z" fill="#E6E6E6"/>
<path d="M37.744 206.06H31.1389V214.583H37.744V206.06Z" fill="#F5F5F5"/>
<path d="M48.723 206.06H41.4756V214.583H48.723V206.06Z" fill="#E6E6E6"/>
<path d="M48.7173 206.06H42.1123V214.583H48.7173V206.06Z" fill="#F5F5F5"/>
<path d="M59.6964 206.06H52.449V214.583H59.6964V206.06Z" fill="#E6E6E6"/>
<path d="M59.6907 206.06H53.0857V214.583H59.6907V206.06Z" fill="#F5F5F5"/>
<path d="M73.9927 146.969H26.8406V147.761H73.9927V146.969Z" fill="#E0E0E0"/>
<path d="M73.9927 186.241H26.8406V187.033H73.9927V186.241Z" fill="#E0E0E0"/>
<path d="M259.413 91.2137H212.827V222.51H259.413V91.2137Z" fill="#E0E0E0"/>
<path d="M246.144 91.2137H212.827V222.51H246.144V91.2137Z" fill="#F0F0F0"/>
<path d="M228.659 102.002H216.261V108.976H228.659V102.002Z" fill="#E6E6E6"/>
<path d="M228.659 102.002H217.084V108.976H228.659V102.002Z" fill="#F5F5F5"/>
<path d="M243.002 102.002H230.604V108.976H243.002V102.002Z" fill="#E6E6E6"/>
<path d="M243.002 102.002H231.427V108.976H243.002V102.002Z" fill="#F5F5F5"/>
<path d="M228.659 115.125H216.261V122.098H228.659V115.125Z" fill="#E6E6E6"/>
<path d="M228.659 115.125H217.084V122.098H228.659V115.125Z" fill="#F5F5F5"/>
<path d="M243.002 115.125H230.604V122.098H243.002V115.125Z" fill="#E6E6E6"/>
<path d="M243.002 115.125H231.427V122.098H243.002V115.125Z" fill="#F5F5F5"/>
<path d="M228.659 131.892H216.261V138.866H228.659V131.892Z" fill="#E6E6E6"/>
<path d="M228.659 131.892H217.084V138.866H228.659V131.892Z" fill="#F5F5F5"/>
<path d="M243.002 131.892H230.604V138.866H243.002V131.892Z" fill="#E6E6E6"/>
<path d="M243.002 131.892H231.427V138.866H243.002V131.892Z" fill="#F5F5F5"/>
<path d="M228.659 141.531H216.261V148.505H228.659V141.531Z" fill="#E6E6E6"/>
<path d="M228.659 141.531H217.084V148.505H228.659V141.531Z" fill="#F5F5F5"/>
<path d="M243.002 141.531H230.604V148.505H243.002V141.531Z" fill="#E6E6E6"/>
<path d="M243.002 141.531H231.427V148.505H243.002V141.531Z" fill="#F5F5F5"/>
<path d="M228.659 157.366H216.261V164.34H228.659V157.366Z" fill="#E6E6E6"/>
<path d="M228.659 157.366H217.084V164.34H228.659V157.366Z" fill="#F5F5F5"/>
<path d="M243.002 157.366H230.604V164.34H243.002V157.366Z" fill="#E6E6E6"/>
<path d="M243.002 157.366H231.427V164.34H243.002V157.366Z" fill="#F5F5F5"/>
<path d="M228.659 166.998H216.261V173.971H228.659V166.998Z" fill="#E6E6E6"/>
<path d="M228.659 166.998H217.084V173.971H228.659V166.998Z" fill="#F5F5F5"/>
<path d="M243.002 166.998H230.604V173.971H243.002V166.998Z" fill="#E6E6E6"/>
<path d="M243.002 166.998H231.427V173.971H243.002V166.998Z" fill="#F5F5F5"/>
<path d="M228.659 184.232H216.261V191.206H228.659V184.232Z" fill="#E6E6E6"/>
<path d="M228.659 184.232H217.084V191.206H228.659V184.232Z" fill="#F5F5F5"/>
<path d="M243.002 184.232H230.604V191.206H243.002V184.232Z" fill="#E6E6E6"/>
<path d="M243.002 184.232H231.427V191.206H243.002V184.232Z" fill="#F5F5F5"/>
<path d="M228.659 196.956H216.261V203.929H228.659V196.956Z" fill="#E6E6E6"/>
<path d="M228.659 196.956H217.084V203.929H228.659V196.956Z" fill="#F5F5F5"/>
<path d="M243.002 196.956H230.604V203.929H243.002V196.956Z" fill="#E6E6E6"/>
<path d="M243.002 196.956H231.427V203.929H243.002V196.956Z" fill="#F5F5F5"/>
<path opacity="0.05" d="M259.413 126.393H212.827V127.591H259.413V126.393Z" fill="black"/>
<path opacity="0.05" d="M259.413 152.333H212.827V153.531H259.413V152.333Z" fill="black"/>
<path opacity="0.05" d="M259.413 178.503H212.827V179.701H259.413V178.503Z" fill="black"/>
<path d="M259.413 87.3312H210.631V91.5249H259.413V87.3312Z" fill="#E0E0E0"/>
<path opacity="0.05" d="M259.413 87.3312H248.264V91.5249H259.413V87.3312Z" fill="black"/>
<path d="M146.479 61.7362H93.8137V220.271H146.479V61.7362Z" fill="#E6E6E6"/>
<path d="M126.991 61.7362H74.3198V220.271H126.991V61.7362Z" fill="#F0F0F0"/>
<path d="M122.395 72.4977H78.916V80.574H122.395V72.4977Z" fill="#E6E6E6"/>
<path d="M122.395 72.4977H80.6038V80.574H122.395V72.4977Z" fill="#F5F5F5"/>
<path d="M122.395 86.0934H78.916V94.1696H122.395V86.0934Z" fill="#E6E6E6"/>
<path d="M122.395 86.0934H80.6038V94.1696H122.395V86.0934Z" fill="#F5F5F5"/>
<path d="M122.395 100.217H78.916V108.293H122.395V100.217Z" fill="#E6E6E6"/>
<path d="M122.395 100.217H80.6038V108.293H122.395V100.217Z" fill="#F5F5F5"/>
<path d="M122.395 114.347H78.916V122.423H122.395V114.347Z" fill="#E6E6E6"/>
<path d="M122.395 114.347H80.6038V122.423H122.395V114.347Z" fill="#F5F5F5"/>
<path d="M122.395 128.47H78.916V136.546H122.395V128.47Z" fill="#E6E6E6"/>
<path d="M122.395 128.47H80.6038V136.546H122.395V128.47Z" fill="#F5F5F5"/>
<path d="M122.395 142.6H78.916V150.676H122.395V142.6Z" fill="#E6E6E6"/>
<path d="M122.395 142.6H80.6038V150.676H122.395V142.6Z" fill="#F5F5F5"/>
<path d="M122.395 158.171H78.916V166.247H122.395V158.171Z" fill="#E6E6E6"/>
<path d="M122.395 158.171H80.6038V166.247H122.395V158.171Z" fill="#F5F5F5"/>
<path d="M122.395 173.735H78.916V181.811H122.395V173.735Z" fill="#E6E6E6"/>
<path d="M122.395 173.735H80.6038V181.811H122.395V173.735Z" fill="#F5F5F5"/>
<path d="M122.395 189.305H78.916V197.382H122.395V189.305Z" fill="#E6E6E6"/>
<path d="M122.395 189.305H80.6038V197.382H122.395V189.305Z" fill="#F5F5F5"/>
<path d="M122.395 204.876H78.916V212.952H122.395V204.876Z" fill="#E6E6E6"/>
<path d="M122.395 204.876H80.6038V212.952H122.395V204.876Z" fill="#F5F5F5"/>
<path d="M147.851 60.1399H72.8306V64.0089H147.851V60.1399Z" fill="#F5F5F5"/>
<path d="M147.851 53.1594H72.8306V57.0284H147.851V53.1594Z" fill="#F5F5F5"/>
<path d="M145.358 56.2709H74.3198V60.1399H145.358V56.2709Z" fill="#F0F0F0"/>
<path d="M146.485 72.4977H131.809V80.574H146.485V72.4977Z" fill="#E0E0E0"/>
<path d="M146.485 85.789H131.809V93.8652H146.485V85.789Z" fill="#E0E0E0"/>
<path d="M146.485 99.0803H131.809V107.156H146.485V99.0803Z" fill="#E0E0E0"/>
<path d="M146.485 114.34H131.809V122.416H146.485V114.34Z" fill="#E0E0E0"/>
<path d="M146.485 128.47H131.809V136.546H146.485V128.47Z" fill="#E0E0E0"/>
<path d="M146.485 142.6H131.809V150.676H146.485V142.6Z" fill="#E0E0E0"/>
<path d="M146.485 158.164H131.809V166.24H146.485V158.164Z" fill="#E0E0E0"/>
<path d="M146.485 173.735H131.809V181.811H146.485V173.735Z" fill="#E0E0E0"/>
<path d="M146.485 189.305H131.809V197.382H146.485V189.305Z" fill="#E0E0E0"/>
<path d="M146.485 204.876H131.809V212.952H146.485V204.876Z" fill="#E0E0E0"/>
<path d="M214.182 117.14H208.389V127.638H214.182V117.14Z" fill="#E0E0E0"/>
<path d="M214.182 134.321H208.389V144.819H214.182V134.321Z" fill="#E0E0E0"/>
<path d="M214.182 151.021H208.389V161.519H214.182V151.021Z" fill="#E0E0E0"/>
<path d="M214.182 168.675H208.389V179.173H214.182V168.675Z" fill="#E0E0E0"/>
<path d="M214.182 185.856H208.389V196.354H214.182V185.856Z" fill="#E0E0E0"/>
<path d="M214.182 106.588H153.218V213.974H214.182V106.588Z" fill="#E6E6E6"/>
<path d="M203.886 106.588H153.224V213.974H203.886V106.588Z" fill="#F0F0F0"/>
<path d="M198.975 117.147H157.779V127.645H198.975V117.147Z" fill="#EBEBEB"/>
<path d="M198.975 134.321H157.779V144.819H198.975V134.321Z" fill="#EBEBEB"/>
<path d="M198.975 151.501H157.779V161.999H198.975V151.501Z" fill="#EBEBEB"/>
<path d="M198.975 168.675H157.779V179.173H198.975V168.675Z" fill="#EBEBEB"/>
<path d="M198.975 185.856H157.779V196.354H198.975V185.856Z" fill="#EBEBEB"/>
<path d="M198.975 117.147H159.298V127.645H198.975V117.147Z" fill="#F5F5F5"/>
<path d="M198.975 134.321H159.298V144.819H198.975V134.321Z" fill="#F5F5F5"/>
<path d="M198.975 151.501H159.298V161.999H198.975V151.501Z" fill="#F5F5F5"/>
<path d="M198.975 168.675H159.298V179.173H198.975V168.675Z" fill="#F5F5F5"/>
<path d="M198.975 185.856H159.298V196.354H198.975V185.856Z" fill="#F5F5F5"/>
<path d="M146 252.468C208.536 252.468 259.232 249.04 259.232 244.811C259.232 240.582 208.536 237.154 146 237.154C83.4639 237.154 32.7683 240.582 32.7683 244.811C32.7683 249.04 83.4639 252.468 146 252.468Z" fill="#F5F5F5"/>
<path d="M81.6021 244.811H79.2661" stroke="#407BFF" stroke-linecap="round" stroke-linejoin="round"/>
<path d="M74.8512 244.811H15.1956" stroke="#407BFF" stroke-linecap="round" stroke-linejoin="round" stroke-dasharray="7.57 7.57"/>
<path d="M12.9881 244.811H10.6521" stroke="#407BFF" stroke-linecap="round" stroke-linejoin="round"/>
<path d="M220.61 82.9014L153.225 84.1956L154.032 140.539L221.416 139.245L220.61 82.9014Z" fill="#E06D60"/>
<path opacity="0.3" d="M193.899 83.4076L153.159 84.19L153.966 140.533L194.706 139.751L193.899 83.4076Z" fill="white"/>
<path opacity="0.3" d="M200.038 87.2041L188.306 87.4758L188.371 91.2637L200.104 90.9919L200.038 87.2041Z" fill="white"/>
<path opacity="0.3" d="M200.386 131.017L188.656 131.243L188.71 135.03L200.441 134.805L200.386 131.017Z" fill="white"/>
<path d="M208.208 118.966C212.01 118.966 215.093 114.927 215.093 109.943C215.093 104.96 212.01 100.92 208.208 100.92C204.405 100.92 201.322 104.96 201.322 109.943C201.322 114.927 204.405 118.966 208.208 118.966Z" stroke="white" stroke-miterlimit="10"/>
<path d="M208.494 102.293V103.808" stroke="white" stroke-linecap="round" stroke-linejoin="round"/>
<path d="M208.792 116.173V117.688" stroke="white" stroke-linecap="round" stroke-linejoin="round"/>
<path d="M202.403 109.646H203.717" stroke="white" stroke-linecap="round" stroke-linejoin="round"/>
<path d="M212.95 109.652H214.264" stroke="white" stroke-linecap="round" stroke-linejoin="round"/>
<path d="M208.488 109.646L208.494 104.979" stroke="white" stroke-width="0.5" stroke-linecap="round" stroke-linejoin="round"/>
<path d="M208.745 109.95L211.595 113.251" stroke="white" stroke-width="0.5" stroke-linecap="round" stroke-linejoin="round"/>
<path d="M209.124 109.652C209.124 109.798 209.087 109.941 209.017 110.062C208.947 110.183 208.848 110.278 208.731 110.334C208.615 110.389 208.487 110.404 208.364 110.376C208.24 110.347 208.127 110.277 208.038 110.174C207.949 110.071 207.888 109.939 207.864 109.796C207.839 109.653 207.852 109.505 207.9 109.37C207.948 109.236 208.03 109.12 208.134 109.039C208.239 108.958 208.362 108.915 208.488 108.915C208.572 108.914 208.655 108.933 208.732 108.969C208.81 109.006 208.88 109.06 208.94 109.129C208.999 109.198 209.046 109.279 209.078 109.369C209.109 109.459 209.125 109.555 209.124 109.652Z" fill="white"/>
<path opacity="0.3" d="M208.208 121.354C213.242 121.354 217.324 116.245 217.324 109.943C217.324 103.641 213.242 98.5324 208.208 98.5324C203.173 98.5324 199.091 103.641 199.091 109.943C199.091 116.245 203.173 121.354 208.208 121.354Z" fill="white"/>
<path d="M132.498 208.901C133.514 209.8 153.913 207.257 148.64 165.341C148.64 165.341 158.317 168.188 159.356 167.999C159.356 167.999 173.553 193.208 163.216 205.695C152.88 218.181 137.474 218.945 137.474 218.945L132.498 208.901Z" fill="#407BFF"/>
<path opacity="0.3" d="M132.498 208.901C133.514 209.8 153.913 207.257 148.64 165.341C148.64 165.341 158.317 168.188 159.356 167.999C159.356 167.999 173.553 193.208 163.216 205.695C152.88 218.181 137.474 218.945 137.474 218.945L132.498 208.901Z" fill="black"/>
<path d="M155.105 171.827C155.157 171.827 149.405 171.956 147.478 169.183C145.55 166.409 144.248 161.451 147.752 158.069C151.256 154.687 171.83 140.077 181.519 138.927C191.207 137.777 201.579 145.015 201.579 145.015L188.895 155.878L161.581 163.535L155.105 171.827Z" fill="#263238"/>
<path d="M136.504 202.299L137.036 208.36L143.319 207.744L142.373 201.514L136.504 202.299Z" fill="#FFC3BD"/>
<path d="M135.284 207.92L144.4 207.771L145.048 213.101C145.048 213.101 136.51 213.237 133 212.695C129.49 212.154 130.039 210.037 130.039 210.037C130.039 210.037 134.151 210.152 135.284 207.92Z" fill="#263238"/>
<path d="M214.841 223.261C216.202 207.767 208.126 194.125 196.802 192.79C185.478 191.456 175.195 202.934 173.834 218.428C172.473 233.922 180.549 247.564 191.873 248.899C203.196 250.233 213.48 238.755 214.841 223.261Z" fill="#263238"/>
<path d="M180.012 134.591C180.012 134.591 180.958 159.733 168.332 160.45C155.706 161.167 142.14 159.564 142.14 159.564L146.117 204.741L134.279 205.586C134.279 205.586 125.782 167.261 124.445 157.63C123.107 147.998 124.27 141.186 133.047 136.911C141.825 132.637 180.012 134.591 180.012 134.591Z" fill="#407BFF"/>
<path d="M109.354 214.359L125.081 161.451L146.105 134.571C146.105 134.571 127.756 134.652 118.938 140.523C110.119 146.395 109.792 153.449 108.175 161.844C106.557 170.238 100.069 209.969 100.069 209.969L109.354 214.359Z" fill="#407BFF"/>
<path opacity="0.7" d="M180.012 134.591C180.012 134.591 160.472 133.584 146.14 134.591C146.14 134.591 127.791 134.673 118.973 140.544C110.154 146.415 109.792 153.449 108.175 161.844C106.557 170.238 100.069 209.97 100.069 209.97L109.354 214.359L125.081 161.451C127.727 176.116 134.279 205.559 134.279 205.559L146.117 204.741L142.134 159.591C142.134 159.591 155.695 161.194 168.327 160.477C180.958 159.76 180.012 134.591 180.012 134.591Z" fill="black"/>
<path d="M147.752 93.8111L140.493 94.8325C140.493 94.8325 139.232 110.288 138.058 113.291C138.058 113.291 115.732 116.843 106.586 116.538L101.943 120.191L101.78 126.542L106.329 126.698L107.795 122.673C107.795 122.673 110.867 122.518 111.579 120.515C111.579 120.515 135.301 127.151 144.038 119.575C144.05 119.582 149.317 110.62 147.752 93.8111Z" fill="#FFC3BD"/>
<path d="M168.554 52.4221C168.554 52.4221 170.826 55.8041 169.961 58.7329C169.723 59.5682 169.303 60.3182 168.741 60.9106C168.179 61.5029 167.496 61.9177 166.755 62.1149C166.755 62.1149 166.329 66.8024 163.94 66.9377C161.552 67.073 162.352 56.609 162.352 56.609L168.554 52.4221Z" fill="#263238"/>
<path d="M150.164 134.706L148.57 104.491L138.677 96.8752C138.677 96.8752 141.912 83.6651 148.103 81.4262C154.293 79.1873 167.795 74.0534 175.983 76.6035C184.17 79.1535 183.23 90.3412 181.823 98.6406L180.246 99.0735C180.246 99.0735 180.001 131.778 179.989 134.591L150.164 134.706Z" fill="#263238"/>
<path d="M167.964 78.4703C164.723 82.1026 158.112 84.2671 156.284 82.4611C154.456 80.6551 156.763 78.9979 158.48 76.9552C159.409 75.8324 159.38 73.7288 159.164 72.0513C159.05 71.206 158.882 70.3718 158.661 69.5554C152.594 69.1698 150.076 65.8825 149.825 60.0857C149.574 54.289 151.84 47.5588 151.84 47.5588L156.127 43.3245C156.127 43.3245 161.967 44.3391 166.639 48.0593C169.419 50.2509 168.595 54.5663 167.445 57.7522C166.957 59.1083 166.371 60.4139 165.693 61.655C165.039 69.5892 167.964 78.4703 167.964 78.4703Z" fill="#FFC3BD"/>
<path d="M153.201 61.6821C153.201 61.6821 155.537 61.8106 156.559 60.1331" stroke="#263238" stroke-linecap="round" stroke-linejoin="round"/>
<path d="M156.921 54.8369C156.921 55.3509 156.652 55.7568 156.337 55.75C156.021 55.7433 155.794 55.3171 155.805 54.8031C155.817 54.289 156.074 53.8832 156.389 53.8899C156.705 53.8967 156.938 54.3228 156.921 54.8369Z" fill="#263238"/>
<path d="M151.595 54.9992C151.595 55.5133 151.326 55.9191 151.011 55.9124C150.695 55.9056 150.468 55.4795 150.479 54.9654C150.491 54.4513 150.748 54.0455 151.063 54.0523C151.379 54.059 151.612 54.4919 151.595 54.9992Z" fill="#263238"/>
<path d="M153.446 59.1997L153.207 55.0533L151.496 58.99C151.763 59.2529 152.093 59.4141 152.442 59.4516C152.791 59.4891 153.142 59.4012 153.446 59.1997Z" fill="#ED847E"/>
<path d="M156.641 51.5902C157.089 51.4476 157.566 51.4938 157.987 51.7205C158.408 51.9471 158.747 52.3396 158.942 52.828" stroke="#263238" stroke-linecap="round" stroke-linejoin="round"/>
<path d="M149.948 52.3545C149.948 52.3545 151.023 51.0017 152.284 51.3467" stroke="#263238" stroke-linecap="round" stroke-linejoin="round"/>
<path d="M167.485 57.7522C160.804 58.0295 159.975 49.2566 159.975 49.2566C156.67 51.2858 151.863 47.5656 151.863 47.5656L156.15 43.3178C156.15 43.3178 161.99 44.3459 166.662 48.0526C169.459 50.2509 168.636 54.5799 167.485 57.7522Z" fill="#263238"/>
<path d="M149.714 50.1359C149.714 50.1359 146.257 47.4709 147.781 45.5499C149.305 43.6289 158.644 47.2815 165.622 51.7593C165.622 51.7593 149.638 39.3744 145.293 43.2907C141.702 46.5307 149.668 51.0288 149.428 51.022L149.714 50.1359Z" fill="#407BFF"/>
<path d="M169.214 49.2295C169.204 50.6321 168.975 52.0209 168.537 53.3285L152.839 44.5353C153.489 43.6655 154.268 42.9371 155.14 42.3843C156.069 41.7688 157.079 41.3346 158.13 41.0992C159.244 40.8524 160.385 40.8068 161.511 40.9639C167.252 41.7282 169.243 46.8418 169.214 49.2295Z" fill="#E06D60"/>
<path d="M99.6947 138.772C99.6947 138.772 81.9645 167.18 96.5645 210.91" stroke="#263238" stroke-linecap="round" stroke-linejoin="round"/>
<path d="M123.095 153.531C123.095 153.531 123.095 153.585 123.095 153.693C123.095 153.801 123.095 153.862 123.095 153.984V154.051C122.884 156.787 122.494 159.501 121.927 162.168C121.121 166.112 120.053 169.866 119.171 172.882C115.433 185.7 115.865 199.512 115.865 199.512C114.627 197.727 112.361 196.455 109.529 195.562C99.2156 192.282 81.7073 194.04 81.7073 194.04C78.2733 180.086 79.4997 158.245 82.9161 146.016C86.3325 133.786 95.805 136.546 95.805 136.546C95.805 136.546 105.803 136.884 107.059 136.729C109.357 136.406 111.683 136.461 113.967 136.891C121.688 138.528 123.545 145.596 123.095 153.531Z" fill="#E06D60"/>
<path d="M200.073 206.77C182.553 225.087 148.733 227.008 123.569 224.979L109.471 195.603L103.76 183.705L122.109 155.059L123.078 153.551C123.078 153.551 123.078 153.605 123.078 153.713C123.078 153.821 123.078 153.882 123.078 154.004V154.072C122.827 159.179 121.204 200.162 134.174 210.213L134.279 210.301C136.034 211.615 138.071 212.336 140.16 212.384C163.958 213.182 163.292 177.211 157.242 169.507L198.537 159.896C198.537 159.896 206.69 183.671 200.073 206.77Z" fill="#E06D60"/>
<path d="M154.141 161.708C154.141 161.708 150.269 165.428 152.266 170.42C154.264 175.412 173.518 165.719 181.098 163.954C188.679 162.188 197.45 160.464 201.223 159.564C204.996 158.664 204.669 146.131 201.585 145.021C198.502 143.912 168.297 150.094 163.286 153.49C159.978 155.817 156.909 158.575 154.141 161.708Z" fill="#263238"/>
<path d="M163.836 60.8501C163.467 60.3906 163.244 59.8 163.203 59.1747C163.161 58.5494 163.304 57.9264 163.608 57.4072C164.542 55.7838 166.428 53.2068 168.239 55.1345C170.773 57.8401 166.446 62.7575 164.653 61.5671C164.353 61.3738 164.078 61.1325 163.836 60.8501Z" fill="#FFC3BD"/>
<path opacity="0.2" d="M149.715 50.1359C149.715 50.1359 146.257 47.4709 147.782 45.5499C148.459 44.6976 150.485 44.8735 153.224 45.7799C154.986 46.3291 156.711 47.023 158.387 47.8564C160.793 49.0672 163.351 50.6162 165.623 51.7593C165.623 51.7593 149.639 39.3744 145.294 43.2907C141.702 46.5307 149.171 50.7311 149.434 51.0152L149.563 50.4673L149.715 50.1359Z" fill="black"/>
<path d="M151.355 48.9792C151.355 48.9792 147.851 49.6556 150.269 54.0252L151.355 48.9792Z" fill="#263238"/>
<path d="M154.713 46.3142C154.713 46.3142 149.428 44.1633 147.957 45.3808C146.485 46.5983 148.027 48.9184 149.709 50.1156L151.058 50.3185L151.852 47.5453L153.907 47.2544L154.713 46.3142Z" fill="#263238"/>
<path opacity="0.3" d="M161.914 43.0067L160.647 45.1779L155.14 42.4047C156.069 41.7892 157.079 41.355 158.13 41.1195L161.914 43.0067Z" fill="white"/>
<path opacity="0.1" d="M160.688 68.9601C160.323 70.0827 159.8 71.1274 159.14 72.0513C159.026 71.2061 158.858 70.3718 158.638 69.5554C159.346 69.4981 160.04 69.2966 160.688 68.9601Z" fill="black"/>
<path d="M108.332 128.443C108.099 133.13 106.347 136.966 104.197 137.912C103.826 138.078 103.427 138.15 103.029 138.122C100.378 137.946 98.4509 133.34 98.7196 127.841C98.9882 122.342 101.359 118.026 104.011 118.202C105.091 118.27 106.043 119.075 106.785 120.367C107.877 122.22 108.49 125.183 108.332 128.443Z" fill="#F5F5F5"/>
<path d="M108.332 128.443C108.098 133.13 106.346 136.966 104.197 137.913C101.744 137.75 99.9632 133.496 100.214 128.443C100.465 123.39 102.65 119.379 105.102 119.541C105.734 119.596 106.332 119.894 106.802 120.387C107.876 122.22 108.49 125.183 108.332 128.443Z" fill="white"/>
<path d="M202.981 194.886C198.467 191.213 180.999 187.608 180.999 187.608C170.388 187.608 161.073 198.667 159.788 213.351C158.737 225.297 163.292 236.139 170.633 241.084C170.633 241.084 171.247 241.382 172.274 241.848C176.164 243.627 186.033 247.936 191.868 248.883" fill="#263238"/>
<path opacity="0.3" d="M214.841 223.261C216.202 207.767 208.126 194.125 196.802 192.79C185.478 191.456 175.195 202.934 173.834 218.428C172.473 233.922 180.549 247.564 191.873 248.899C203.196 250.233 213.48 238.755 214.841 223.261Z" fill="black"/>
<path d="M124.052 222.359C125.414 206.865 117.337 193.223 106.014 191.888C94.6898 190.554 84.4066 202.032 83.0455 217.526C81.6843 233.02 89.7605 246.662 101.084 247.997C112.408 249.331 122.691 237.853 124.052 222.359Z" fill="#263238"/>
<path d="M116.146 197.057L105.704 247.834C104.181 248.12 102.631 248.173 101.096 247.99H100.98C98.9764 247.395 99.8699 248.037 97.861 247.266C92.751 245.311 85.3283 241.855 85.3283 241.855C77.4618 237.425 73.0176 226.65 74.098 214.339C75.4061 199.424 84.645 188.284 95.5191 189.197C95.5191 189.197 100.682 190.3 105.996 191.903C108.332 192.579 110.668 193.384 112.589 194.223C113.862 195.013 115.054 195.963 116.146 197.057Z" fill="#263238"/>
<path opacity="0.3" d="M124.053 222.327C122.885 235.686 115.077 246.056 105.692 247.807C104.169 248.093 102.62 248.146 101.085 247.963H100.968C98.8296 247.696 96.7515 246.978 94.8358 245.846C86.946 241.212 81.9528 229.957 83.0449 217.511C84.4056 202.029 94.6665 190.564 105.984 191.876H106.014C108.312 192.145 110.542 192.933 112.578 194.196C113.85 194.988 115.043 195.941 116.134 197.037C121.723 202.664 124.976 212.107 124.053 222.327Z" fill="black"/>
<path d="M121.209 204.538C120.867 203.905 120.476 203.31 120.041 202.759C117.431 198.633 111.462 197.091 107.555 197.456C104.56 197.795 101.685 198.989 99.1866 200.933C96.3367 203.07 94.2985 206.344 91.472 208.59C86.1109 212.878 77.9757 212.756 72.5913 208.339C72.2876 208.089 71.9989 207.816 71.7269 207.521C71.1782 206.859 70.8122 206.023 70.6757 205.12C70.4697 203.991 70.5447 202.819 70.8918 201.738C72.0598 197.936 75.9551 194.595 78.4137 192.559C83.3984 188.486 89.2614 186.095 95.3497 185.653C112.712 184.266 120.117 201.44 121.209 204.538Z" fill="#E06D60"/>
<path opacity="0.3" d="M120.006 205.079C116.275 198.843 111.486 197.091 107.579 197.456C104.584 197.795 101.708 198.989 99.2101 200.933C96.3601 203.07 94.322 206.344 91.4954 208.59C86.1343 212.878 77.9992 212.756 72.6147 208.339C72.3111 208.089 72.0223 207.816 71.7504 207.521C71.2016 206.859 70.8356 206.023 70.6992 205.12C70.4932 203.991 70.5681 202.819 70.9153 201.738C72.7198 204.152 77.9758 209.97 85.0948 207.149C93.9716 203.598 96.1382 193.046 105.628 193.141C113.168 193.242 117.81 200.006 120.006 205.079Z" fill="black"/>
<g opacity="0.3">
<path opacity="0.3" d="M80.9541 190.699C83.4864 188.614 86.3356 187.102 89.352 186.241C92.3714 185.351 95.4983 185.054 98.6026 185.362C101.702 185.708 104.737 186.602 107.602 188.014L108.665 188.555L109.704 189.157C110.405 189.535 111.065 190.009 111.743 190.442C112.42 190.875 113.045 191.409 113.693 191.889C114.341 192.37 114.949 192.931 115.568 193.465C113.021 191.489 110.302 189.827 107.456 188.507C104.615 187.187 101.622 186.36 98.5734 186.052C95.5307 185.715 92.461 185.943 89.4805 186.728C87.9842 187.113 86.5174 187.637 85.0947 188.298C83.6508 188.941 82.2642 189.746 80.9541 190.699Z" fill="black"/>
</g>
<g opacity="0.3">
<path opacity="0.3" d="M99.864 185.863C99.1358 183.042 98.6987 180.131 98.5617 177.191C98.369 174.262 98.3281 171.32 98.3806 168.398C98.4332 165.476 98.6084 162.527 98.842 159.605L99.2683 155.235C99.4552 153.781 99.6187 152.327 99.8523 150.879L99.3209 159.672L99.1106 164.055C99.0756 165.516 98.9997 166.977 98.9938 168.438C98.8946 171.361 98.9413 174.283 99.0347 177.232C99.0756 178.693 99.1749 180.147 99.3034 181.601C99.4059 183.035 99.5933 184.459 99.864 185.863Z" fill="black"/>
</g>
<path opacity="0.3" d="M134.145 210.152C121.951 201.068 121.466 177.631 121.881 162.168C121.957 159.51 122.05 157.095 122.12 155.019C122.248 152.94 122.248 150.854 122.12 148.775C120.888 138.156 113.88 136.878 113.88 136.878H113.909C121.671 138.528 123.528 145.596 123.078 153.531C123.078 153.531 123.078 153.585 123.078 153.693C123.078 153.801 123.078 153.862 123.078 153.984V154.051C122.815 159.158 121.192 200.141 134.145 210.152Z" fill="black"/>
<path opacity="0.2" d="M133.152 130.107C132.13 131.345 118.914 128.172 116.607 129.593C115.632 130.188 115.206 132.298 114.225 134.612C111.468 139.685 107.59 140.483 107.351 140.523C111.976 136.465 113.267 126.698 110.972 120.522C108.677 114.347 100.46 115.95 99.9924 116.132C101.394 115.419 102.901 115.026 104.431 114.976C108.875 114.705 114.295 116.153 115.813 119.413C118.897 126.062 132.118 124.567 133.333 126.312C134.548 128.057 134.174 128.869 133.152 130.107Z" fill="black"/>
<path d="M122.804 124.202C122 125.919 121.68 127.884 121.887 129.823L133.082 131.284C133.654 130.517 134.077 129.616 134.322 128.642C134.567 127.669 134.628 126.646 134.501 125.643C134.501 125.643 123.411 124.351 122.804 124.202Z" fill="#263238"/>
<path d="M88.809 123.722C88.809 123.722 87.6935 120.975 89.0309 119.237C86.0408 118.926 84.1895 118.561 82.2623 118.236C81.9762 119.244 81.836 120.211 82.8463 121.746C83.8567 123.282 88.809 123.722 88.809 123.722Z" fill="#263238"/>
<path d="M82.5894 140.909C80.6505 144.568 78.9919 150.426 78.8459 159.781" stroke="#407BFF" stroke-linecap="round" stroke-linejoin="round"/>
<path d="M88.9724 134.875C87.5619 135.254 86.265 136.065 85.2173 137.223" stroke="#407BFF" stroke-linecap="round" stroke-linejoin="round"/>
<path d="M176.064 99.6147L168.694 100.656C168.694 100.656 167.409 116.342 166.218 119.393C166.218 119.393 143.553 123.005 134.262 122.687L129.549 126.393L129.385 132.846L134.005 133.002L135.494 128.943C135.494 128.943 138.612 128.788 139.331 126.752C139.331 126.752 163.415 133.516 172.286 125.805C172.28 125.778 177.635 116.68 176.064 99.6147Z" fill="#FFC3BD"/>
<path opacity="0.2" d="M116.053 220.298C115.842 228.807 111.03 235.544 105.301 235.355C104.531 235.328 103.768 235.176 103.035 234.902C98.445 233.211 95.1395 226.94 95.3206 219.601C95.5016 212.499 98.883 206.628 103.327 204.998C104.215 204.667 105.145 204.514 106.078 204.545C111.807 204.741 116.269 211.816 116.053 220.298Z" fill="#FAFAFA"/>
<path d="M110.779 220.298C110.598 227.563 107.275 233.535 103.035 234.922C98.445 233.231 95.1395 226.961 95.3206 219.622C95.5016 212.52 98.883 206.648 103.327 205.018C107.742 206.405 110.96 212.777 110.779 220.298Z" fill="#263238"/>
<path opacity="0.2" d="M206.035 220.974C205.819 229.484 201.007 236.227 195.284 236.031C194.513 236.008 193.75 235.855 193.018 235.578C188.422 233.887 185.116 227.624 185.303 220.278C185.478 213.182 188.86 207.304 193.304 205.674C194.192 205.344 195.122 205.19 196.055 205.221C201.784 205.417 206.245 212.479 206.035 220.974Z" fill="#FAFAFA"/>
<path d="M200.762 220.975C200.575 228.232 197.258 234.205 193.018 235.592C188.422 233.901 185.116 227.637 185.303 220.291C185.478 213.196 188.86 207.318 193.304 205.688C197.725 207.074 200.949 213.446 200.762 220.975Z" fill="#263238"/>
<path d="M215.064 198.559C215.163 206.926 204.167 212.465 185.765 215.956C180.805 216.966 175.735 217.034 170.756 216.159C162.58 214.596 158.585 210.592 158.585 210.592C158.585 210.592 160.664 181.676 181.239 178.01C195.255 175.52 205.802 182.068 211.151 189.123C213.668 192.437 215.035 195.88 215.064 198.559Z" fill="#E06D60"/>
<path opacity="0.3" d="M215.064 198.559C215.163 206.926 204.166 212.465 185.765 215.956C180.804 216.966 175.735 217.034 170.756 216.159C171.638 208.306 175.597 187.709 192.808 185.572C200.616 184.598 206.643 186.424 211.151 189.123C213.668 192.437 215.035 195.88 215.064 198.559Z" fill="black"/>
<g opacity="0.3">
<path opacity="0.3" d="M159.777 210.72C160.155 206.784 160.966 202.92 162.189 199.221C163.391 195.485 165.051 191.967 167.118 188.778C168.162 187.192 169.335 185.727 170.622 184.401C171.896 183.055 173.302 181.883 174.809 180.911C177.809 178.952 181.132 177.751 184.562 177.387C182.881 177.713 181.228 178.207 179.621 178.862C178.809 179.146 178.044 179.586 177.285 179.958C176.523 180.38 175.781 180.847 175.06 181.358C174.324 181.845 173.647 182.433 172.952 182.981C172.257 183.529 171.615 184.178 171.001 184.861C169.754 186.174 168.618 187.621 167.608 189.184C165.557 192.312 163.885 195.751 162.638 199.404C161.991 201.224 161.434 203.085 160.968 204.978C160.473 206.863 160.075 208.78 159.777 210.72Z" fill="black"/>
</g>
<path d="M132.165 201.17L133.38 205.945L146.117 204.714L146.286 198.038L132.165 201.17Z" fill="#407BFF"/>
<path d="M207.997 168.601L236.023 167.282" stroke="#407BFF" stroke-linecap="round" stroke-linejoin="round"/>
<path d="M245.286 161.37L249.45 161.174" stroke="#407BFF" stroke-linecap="round" stroke-linejoin="round"/>
<path d="M221.429 162.493L242.091 161.519" stroke="#407BFF" stroke-linecap="round" stroke-linejoin="round"/>
<path d="M235.889 179.295L253.205 178.483" stroke="#407BFF" stroke-linecap="round" stroke-linejoin="round"/>
<path d="M225.185 179.802L232.73 179.444" stroke="#407BFF" stroke-linecap="round" stroke-linejoin="round"/>
</svg>
