<svg width="22" height="22" viewBox="0 0 22 22" fill="none" xmlns="http://www.w3.org/2000/svg">
<path d="M19.5312 0H2.34375C1.72215 0 1.12601 0.246551 0.686468 0.685416C0.24693 1.12428 0 1.71951 0 2.34016L0 19.5013C0 20.1219 0.24693 20.7172 0.686468 21.156C1.12601 21.5949 1.72215 21.8414 2.34375 21.8414H9.04541V14.4158H5.96924V10.9207H9.04541V8.25685C9.04541 5.22683 10.8521 3.55314 13.6191 3.55314C14.9443 3.55314 16.3301 3.7891 16.3301 3.7891V6.76305H14.8032C13.2988 6.76305 12.8296 7.69521 12.8296 8.65126V10.9207H16.188L15.6509 14.4158H12.8296V21.8414H19.5312C20.1529 21.8414 20.749 21.5949 21.1885 21.156C21.6281 20.7172 21.875 20.1219 21.875 19.5013V2.34016C21.875 1.71951 21.6281 1.12428 21.1885 0.685416C20.749 0.246551 20.1529 0 19.5312 0Z" fill="#F7F7F7"/>
</svg>
