<svg width="22" height="22" viewBox="0 0 22 22" fill="none" xmlns="http://www.w3.org/2000/svg">
<path d="M10.946 5.32263C7.84058 5.32263 5.33569 7.82368 5.33569 10.9244C5.33569 14.0251 7.84058 16.5261 10.946 16.5261C14.0515 16.5261 16.5564 14.0251 16.5564 10.9244C16.5564 7.82368 14.0515 5.32263 10.946 5.32263ZM10.946 14.5662C8.93921 14.5662 7.29858 12.933 7.29858 10.9244C7.29858 8.91575 8.93433 7.28251 10.946 7.28251C12.9578 7.28251 14.5935 8.91575 14.5935 10.9244C14.5935 12.933 12.9529 14.5662 10.946 14.5662ZM18.0945 5.09349C18.0945 5.81992 17.5085 6.40008 16.7859 6.40008C16.0584 6.40008 15.4773 5.81504 15.4773 5.09349C15.4773 4.37195 16.0632 3.78691 16.7859 3.78691C17.5085 3.78691 18.0945 4.37195 18.0945 5.09349ZM21.8103 6.41958C21.7273 4.66934 21.3269 3.11899 20.0427 1.84165C18.7634 0.564319 17.2107 0.164542 15.4578 0.0767863C13.6511 -0.0255954 8.23608 -0.0255954 6.42944 0.0767863C4.6814 0.159667 3.12866 0.559443 1.84448 1.83678C0.560303 3.11411 0.164795 4.66447 0.0769043 6.41471C-0.0256348 8.21858 -0.0256348 13.6253 0.0769043 15.4292C0.159912 17.1794 0.560303 18.7298 1.84448 20.0071C3.12866 21.2844 4.67651 21.6842 6.42944 21.772C8.23608 21.8744 13.6511 21.8744 15.4578 21.772C17.2107 21.6891 18.7634 21.2893 20.0427 20.0071C21.322 18.7298 21.7224 17.1794 21.8103 15.4292C21.9128 13.6253 21.9128 8.22345 21.8103 6.41958ZM19.4763 17.3647C19.0955 18.3202 18.3582 19.0564 17.3962 19.4416C15.9558 20.012 12.5378 19.8804 10.946 19.8804C9.35425 19.8804 5.9314 20.0071 4.49585 19.4416C3.53882 19.0613 2.80151 18.3251 2.41577 17.3647C1.84448 15.9265 1.97632 12.5137 1.97632 10.9244C1.97632 9.33503 1.84937 5.91742 2.41577 4.48408C2.79663 3.52852 3.53394 2.79234 4.49585 2.40719C5.93628 1.83678 9.35425 1.96841 10.946 1.96841C12.5378 1.96841 15.9607 1.84165 17.3962 2.40719C18.3533 2.78747 19.0906 3.52364 19.4763 4.48408C20.0476 5.9223 19.9158 9.33503 19.9158 10.9244C19.9158 12.5137 20.0476 15.9313 19.4763 17.3647Z" fill="#203C61"/>
</svg>
