<svg width="87" height="92" viewBox="0 0 87 92" fill="none" xmlns="http://www.w3.org/2000/svg">
<path d="M86.9959 74.7613C86.9951 74.7479 86.9952 74.7346 86.994 74.7211C86.9895 74.6677 86.9822 74.6154 86.9718 74.5642C86.9708 74.5592 86.9692 74.5542 86.9681 74.5491C86.958 74.502 86.9456 74.4561 86.931 74.4111C86.9271 74.3991 86.9229 74.3874 86.9186 74.3755C86.9043 74.3348 86.8882 74.295 86.8703 74.2564C86.8673 74.2496 86.8652 74.2426 86.862 74.2358L80.0461 60.0192V13.2466C80.0461 11.808 78.9394 10.6377 77.579 10.6377H9.42064C8.06024 10.6377 6.95354 11.808 6.95354 13.2466V60.0189L0.137807 74.2356C0.134578 74.2424 0.132539 74.2494 0.12948 74.2562C0.111639 74.2949 0.095666 74.3346 0.0812227 74.3752C0.0769746 74.3871 0.0727266 74.3989 0.0688184 74.4109C0.054375 74.4561 0.0418008 74.5022 0.0317754 74.5493C0.0307559 74.5542 0.0292266 74.559 0.028207 74.5639C0.0178418 74.6152 0.0105352 74.6675 0.00594727 74.7209C0.00475781 74.7342 0.00475781 74.7477 0.00407813 74.761C0.00237891 74.789 0 74.8167 0 74.8451V78.2638C0 79.9725 1.31435 81.3623 2.93013 81.3623H84.0699C85.6857 81.3623 87 79.9725 87 78.2638V74.8451C87 74.8167 86.9976 74.789 86.9959 74.7613ZM9.50254 13.3334H77.4975V58.9936H9.50254V13.3334ZM9.01079 61.6887H77.989L83.6505 73.4972H55.6508L54.2453 68.1086C53.9592 67.0116 53.008 66.2454 51.9319 66.2454H35.0678C33.9917 66.2454 33.0403 67.0116 32.7543 68.1084L31.3489 73.4972H3.34933L9.01079 61.6887ZM53.0068 73.4974H33.9932L35.1815 68.9409H51.8185L53.0068 73.4974ZM84.4512 78.2636C84.4512 78.4859 84.2801 78.6668 84.0699 78.6668H2.93013C2.71994 78.6668 2.54883 78.4859 2.54883 78.2636V76.1926H84.4512V78.2636Z" fill="#E06D60"/>
<path d="M73.5042 38.4093C72.8002 38.4093 72.2298 39.0125 72.2298 39.757V53.4231H14.77V39.757C14.77 39.0125 14.1996 38.4093 13.4956 38.4093C12.7916 38.4093 12.2212 39.0125 12.2212 39.757V54.0051C12.2212 55.1704 13.1175 56.1184 14.2196 56.1184H72.7803C73.8823 56.1184 74.7788 55.1706 74.7788 54.0051V39.757C74.7786 39.0129 74.2082 38.4093 73.5042 38.4093Z" fill="#E06D60"/>
<path d="M72.7802 16.2084H14.2196C13.1177 16.2084 12.2212 17.1562 12.2212 18.3217V32.5698C12.2212 33.3143 12.7916 33.9175 13.4956 33.9175C14.1996 33.9175 14.77 33.3143 14.77 32.5698V18.9037H72.2298V32.5698C72.2298 33.3143 72.8002 33.9175 73.5042 33.9175C74.2082 33.9175 74.7786 33.3143 74.7786 32.5698V18.3217C74.7786 17.156 73.8823 16.2084 72.7802 16.2084Z" fill="#E06D60"/>
</svg>
