<svg width="83" height="65" viewBox="0 0 83 65" fill="none" xmlns="http://www.w3.org/2000/svg">
<g clip-path="url(#clip0_82:404)">
<path d="M33.929 13.5164C29.5454 11.0003 25.0478 7.8992 21.8468 4.13898L19.0446 0.847338C18.451 0.149984 17.3444 -0.160543 16.3161 0.0811757C15.2903 0.324799 14.5898 1.06494 14.5898 1.90371V31.7814C13.1536 31.1254 11.506 30.7221 9.72656 30.7221C4.3622 30.7221 0 34.1382 0 38.3393C0 42.5403 4.3622 45.9563 9.72656 45.9563C15.0909 45.9563 19.4531 42.5401 19.4531 38.3391V8.15628C22.8892 11.5576 27.1874 14.3681 31.0533 16.5885C32.9529 17.6783 34.043 19.3595 34.043 21.2005C34.043 24.3507 30.7706 26.9134 26.748 26.9134C25.404 26.9134 24.3164 27.7651 24.3164 28.8176C24.3164 29.8702 25.404 30.7219 26.748 30.7219C33.4518 30.7219 38.9062 26.4504 38.9062 21.2005C38.9062 18.1785 37.0469 15.3072 33.929 13.5164Z" fill="#E06D60"/>
<path d="M79.9011 15.5605L45.5339 23.1777C44.4891 23.412 43.7695 24.1595 43.7695 25.0095V50.8247C42.3332 50.1687 40.6857 49.7654 38.9062 49.7654C33.5419 49.7654 29.1797 53.1815 29.1797 57.3825C29.1797 61.5835 33.5419 64.9997 38.9062 64.9997C44.2706 64.9997 48.6328 61.5835 48.6328 57.3825C48.6328 56.9484 48.6328 34.0638 48.6328 34.0638L78.1367 27.5347V43.2075C76.7004 42.5515 75.0529 42.1482 73.2734 42.1482C67.9091 42.1482 63.5469 45.5644 63.5469 49.7654C63.5469 53.9664 67.9091 57.3825 73.2734 57.3825C78.6378 57.3825 83 53.9664 83 49.7654C83 49.3312 83 17.3923 83 17.3923C83 16.1328 81.4616 15.2153 79.9011 15.5605Z" fill="#E06D60"/>
</g>
<defs>
<clipPath id="clip0_82:404">
<rect width="83" height="65" fill="white"/>
</clipPath>
</defs>
</svg>
