<svg width="274" height="252" viewBox="0 0 274 252" fill="none" xmlns="http://www.w3.org/2000/svg">
<path d="M274 223.192H0V223.351H274V223.192Z" fill="#EBEBEB"/>
<path d="M129.876 194.741H24.0628C23.2339 194.739 22.4394 194.355 21.8538 193.672C21.2681 192.989 20.9392 192.063 20.9392 191.098V17.949C20.9464 16.9896 21.2785 16.0722 21.8634 15.3962C22.4482 14.7202 23.2386 14.3401 24.0628 14.3384H129.876C130.706 14.3384 131.502 14.7222 132.089 15.4053C132.676 16.0884 133.005 17.0149 133.005 17.9809V191.098C133.005 192.064 132.676 192.991 132.089 193.674C131.502 194.357 130.706 194.741 129.876 194.741V194.741ZM24.0628 14.466C23.2702 14.4677 22.5106 14.8354 21.9506 15.4884C21.3907 16.1414 21.0762 17.0264 21.0762 17.949V191.098C21.0762 192.021 21.3907 192.906 21.9506 193.559C22.5106 194.212 23.2702 194.58 24.0628 194.581H129.876C130.669 194.58 131.429 194.212 131.99 193.559C132.551 192.906 132.867 192.022 132.868 191.098V17.949C132.867 17.0258 132.551 16.1408 131.99 15.488C131.429 14.8352 130.669 14.4677 129.876 14.466H24.0628Z" fill="#EBEBEB"/>
<path d="M248.414 194.741H142.595C141.765 194.739 140.97 194.355 140.384 193.672C139.797 192.989 139.467 192.064 139.466 191.098V17.949C139.474 16.989 139.808 16.0717 140.394 15.3958C140.979 14.72 141.77 14.34 142.595 14.3384H248.414C249.237 14.3417 250.026 14.7226 250.61 15.3985C251.193 16.0743 251.525 16.9907 251.532 17.949V191.098C251.532 192.062 251.204 192.987 250.619 193.669C250.035 194.352 249.242 194.737 248.414 194.741V194.741ZM142.595 14.466C141.802 14.4677 141.042 14.8352 140.481 15.488C139.92 16.1408 139.604 17.0258 139.603 17.949V191.098C139.604 192.022 139.92 192.906 140.481 193.559C141.042 194.212 141.802 194.58 142.595 194.581H248.414C249.207 194.58 249.967 194.212 250.528 193.559C251.089 192.906 251.404 192.022 251.406 191.098V17.949C251.404 17.0258 251.089 16.1408 250.528 15.488C249.967 14.8352 249.207 14.4677 248.414 14.466H142.595Z" fill="#EBEBEB"/>
<path d="M109.841 229.265H95.593V229.424H109.841V229.265Z" fill="#EBEBEB"/>
<path d="M58.3948 227.536H28.748V227.695H58.3948V227.536Z" fill="#EBEBEB"/>
<path d="M95.0449 235.191H80.6216V235.35H95.0449V235.191Z" fill="#EBEBEB"/>
<path d="M162.789 234.119H141.51V234.279H162.789V234.119Z" fill="#EBEBEB"/>
<path d="M173.524 234.119H167.666V234.279H173.524V234.119Z" fill="#EBEBEB"/>
<path d="M246.551 231.427H216.652V231.587H246.551V231.427Z" fill="#EBEBEB"/>
<path d="M63.3707 80.471H103.923C104.747 80.471 105.537 80.8521 106.12 81.5304C106.703 82.2087 107.03 83.1287 107.03 84.088V223.192H60.28V84.0816C60.2815 83.1268 60.6072 82.2113 61.1862 81.5349C61.7652 80.8585 62.5505 80.4761 63.3707 80.471V80.471Z" fill="#F5F5F5"/>
<path d="M70.1769 88.9043H64.1489V104.527H70.1769V88.9043Z" fill="#EBEBEB"/>
<path d="M103.144 88.9043H97.1165V104.527H103.144V88.9043Z" fill="#EBEBEB"/>
<path d="M81.1642 88.9043H75.1362V104.527H81.1642V88.9043Z" fill="#EBEBEB"/>
<path d="M92.1572 88.9043H86.1292V104.527H92.1572V88.9043Z" fill="#EBEBEB"/>
<path d="M70.1769 113.566H64.1489V129.189H70.1769V113.566Z" fill="#EBEBEB"/>
<path d="M103.144 113.566H97.1165V129.189H103.144V113.566Z" fill="#EBEBEB"/>
<path d="M81.1642 113.566H75.1362V129.189H81.1642V113.566Z" fill="#EBEBEB"/>
<path d="M92.1572 113.566H86.1292V129.189H92.1572V113.566Z" fill="#EBEBEB"/>
<path d="M70.1769 138.228H64.1489V153.85H70.1769V138.228Z" fill="#EBEBEB"/>
<path d="M103.144 138.228H97.1165V153.85H103.144V138.228Z" fill="#EBEBEB"/>
<path d="M81.1642 138.228H75.1362V153.85H81.1642V138.228Z" fill="#EBEBEB"/>
<path d="M92.1572 138.228H86.1292V153.85H92.1572V138.228Z" fill="#EBEBEB"/>
<path d="M70.1769 162.89H64.1489V178.512H70.1769V162.89Z" fill="#EBEBEB"/>
<path d="M103.144 162.89H97.1165V178.512H103.144V162.89Z" fill="#EBEBEB"/>
<path d="M81.1642 162.89H75.1362V178.512H81.1642V162.89Z" fill="#EBEBEB"/>
<path d="M92.1572 162.89H86.1292V178.512H92.1572V162.89Z" fill="#EBEBEB"/>
<path d="M70.1769 187.551H64.1489V203.174H70.1769V187.551Z" fill="#EBEBEB"/>
<path d="M103.144 187.551H97.1165V203.174H103.144V187.551Z" fill="#EBEBEB"/>
<path d="M81.1642 187.551H75.1362V203.174H81.1642V187.551Z" fill="#EBEBEB"/>
<path d="M92.1572 187.551H86.1292V203.174H92.1572V187.551Z" fill="#EBEBEB"/>
<path d="M207.144 93.4398H236.188C236.52 93.4398 236.848 93.5159 237.155 93.6637C237.461 93.8115 237.74 94.0281 237.974 94.3012C238.209 94.5743 238.395 94.8985 238.522 95.2552C238.649 95.612 238.714 95.9944 238.714 96.3806V223.192H204.645V96.387C204.644 95.6115 204.906 94.8666 205.374 94.3146C205.842 93.7627 206.478 93.4483 207.144 93.4398Z" fill="#F5F5F5"/>
<path d="M214.443 101.108H208.963V115.308H214.443V101.108Z" fill="#EBEBEB"/>
<path d="M224.433 101.108H218.953V115.308H224.433V101.108Z" fill="#EBEBEB"/>
<path d="M234.424 101.108H228.944V115.308H234.424V101.108Z" fill="#EBEBEB"/>
<path d="M214.443 123.53H208.963V137.73H214.443V123.53Z" fill="#EBEBEB"/>
<path d="M224.433 123.53H218.953V137.73H224.433V123.53Z" fill="#EBEBEB"/>
<path d="M234.424 123.53H228.944V137.73H234.424V123.53Z" fill="#EBEBEB"/>
<path d="M214.443 145.953H208.963V160.153H214.443V145.953Z" fill="#EBEBEB"/>
<path d="M224.433 145.953H218.953V160.153H224.433V145.953Z" fill="#EBEBEB"/>
<path d="M234.424 145.953H228.944V160.153H234.424V145.953Z" fill="#EBEBEB"/>
<path d="M214.443 168.369H208.963V182.569H214.443V168.369Z" fill="#EBEBEB"/>
<path d="M224.433 168.369H218.953V182.569H224.433V168.369Z" fill="#EBEBEB"/>
<path d="M234.424 168.369H228.944V182.569H234.424V168.369Z" fill="#EBEBEB"/>
<path d="M214.443 190.792H208.963V204.992H214.443V190.792Z" fill="#EBEBEB"/>
<path d="M224.433 190.792H218.953V204.992H224.433V190.792Z" fill="#EBEBEB"/>
<path d="M234.424 190.792H228.944V204.992H234.424V190.792Z" fill="#EBEBEB"/>
<path d="M140.611 57.1489H187.789C188.746 57.1489 189.665 57.5918 190.342 58.3801C191.019 59.1685 191.4 60.2378 191.4 61.3527V223.192H137V61.3527C137 60.2378 137.38 59.1685 138.058 58.3801C138.735 57.5918 139.654 57.1489 140.611 57.1489V57.1489Z" fill="#F5F5F5"/>
<path d="M148.53 66.96H141.516V85.1342H148.53V66.96Z" fill="#EBEBEB"/>
<path d="M186.884 66.96H179.87V85.1342H186.884V66.96Z" fill="#EBEBEB"/>
<path d="M161.315 66.96H154.3V85.1342H161.315V66.96Z" fill="#EBEBEB"/>
<path d="M174.1 66.96H167.085V85.1342H174.1V66.96Z" fill="#EBEBEB"/>
<path d="M148.53 95.6534H141.516V113.828H148.53V95.6534Z" fill="#EBEBEB"/>
<path d="M186.884 95.6534H179.87V113.828H186.884V95.6534Z" fill="#EBEBEB"/>
<path d="M161.315 95.6534H154.3V113.828H161.315V95.6534Z" fill="#EBEBEB"/>
<path d="M174.1 95.6534H167.085V113.828H174.1V95.6534Z" fill="#EBEBEB"/>
<path d="M148.53 124.347H141.516V142.521H148.53V124.347Z" fill="#EBEBEB"/>
<path d="M186.884 124.347H179.87V142.521H186.884V124.347Z" fill="#EBEBEB"/>
<path d="M161.315 124.347H154.3V142.521H161.315V124.347Z" fill="#EBEBEB"/>
<path d="M174.1 124.347H167.085V142.521H174.1V124.347Z" fill="#EBEBEB"/>
<path d="M148.53 153.04H141.516V171.214H148.53V153.04Z" fill="#EBEBEB"/>
<path d="M186.884 153.04H179.87V171.214H186.884V153.04Z" fill="#EBEBEB"/>
<path d="M161.315 153.04H154.3V171.214H161.315V153.04Z" fill="#EBEBEB"/>
<path d="M174.1 153.04H167.085V171.214H174.1V153.04Z" fill="#EBEBEB"/>
<path d="M148.53 181.727H141.516V199.902H148.53V181.727Z" fill="#EBEBEB"/>
<path d="M186.884 181.727H179.87V199.902H186.884V181.727Z" fill="#EBEBEB"/>
<path d="M161.315 181.727H154.3V199.902H161.315V181.727Z" fill="#EBEBEB"/>
<path d="M174.1 181.727H167.085V199.902H174.1V181.727Z" fill="#EBEBEB"/>
<path d="M137 116.615H107.03V223.192H137V116.615Z" fill="#E6E6E6"/>
<path d="M204.645 128.028H191.405V223.192H204.645V128.028Z" fill="#E6E6E6"/>
<path d="M60.2634 223.192H34.0361V178.697L60.2634 168.369V223.192Z" fill="#E6E6E6"/>
<path d="M230.708 39.4595C234.999 35.2939 243.728 27.1669 236.221 26.0059C229.009 24.8895 218.383 29.8015 214.991 34.1138C214.991 29.9865 213.32 26.0569 206.952 22.8801C197.154 17.9809 195.636 35.7851 196.151 39.0512C192.211 36.8504 179.771 37.2587 188.347 43.4656H231.88C231.88 43.4656 240.868 36.927 230.708 39.4595Z" fill="#F5F5F5"/>
<path d="M34.3049 60.9062C34.2721 58.5331 34.0529 53.8891 37.6587 53.2512C41.1221 52.6133 43.473 55.4137 43.0784 57.8697C44.8101 55.5158 47.1446 53.2831 51.1231 51.4905C57.2552 48.6965 50.4326 58.8393 48.8434 60.702C51.4025 59.4262 56.4003 59.675 50.2353 63.209H32.1513C32.1513 63.209 31.1594 59.4581 34.3049 60.9062Z" fill="#FAFAFA"/>
<path d="M110.186 32.7486H51.9341C51.9341 32.7486 55.3098 27.977 60.5815 29.4825C58.0991 25.8017 56.7784 12.0036 65.0861 10.2813C69.3112 9.40732 74.298 18.3509 74.4021 23.0396C76.4845 11.8186 82.2385 -2.43875 91.0722 0.355313C99.906 3.14938 93.0615 23.5116 93.0615 23.5116C93.0615 23.5116 101.55 9.12026 108.597 15.5058C112.795 19.3333 104.915 28.06 104.915 28.06C104.915 28.06 114.565 27.977 110.186 32.7486Z" fill="#F3F3F3"/>
<path d="M137 252C195.681 252 243.252 248.767 243.252 244.779C243.252 240.791 195.681 237.558 137 237.558C78.3188 237.558 30.7483 240.791 30.7483 244.779C30.7483 248.767 78.3188 252 137 252Z" fill="#F5F5F5"/>
<path d="M108.608 195.908C105.544 195.985 102.627 197.456 100.484 200.006C98.3401 202.556 97.1396 205.982 97.1396 209.55C97.1396 213.118 98.3401 216.544 100.484 219.094C102.627 221.644 105.544 223.115 108.608 223.192H110.953V195.908H108.608Z" fill="#263238"/>
<path d="M193.992 195.908C192.432 195.869 190.88 196.193 189.429 196.861C187.978 197.528 186.656 198.527 185.54 199.798C184.425 201.068 183.539 202.586 182.934 204.26C182.328 205.935 182.017 207.733 182.017 209.55C182.017 211.367 182.328 213.165 182.934 214.84C183.539 216.514 184.425 218.032 185.54 219.302C186.656 220.573 187.978 221.571 189.429 222.239C190.88 222.907 192.432 223.231 193.992 223.192H196.332V195.908H193.992Z" fill="#263238"/>
<path d="M155.303 223.185C161.774 223.185 167.02 217.079 167.02 209.547C167.02 202.014 161.774 195.908 155.303 195.908C148.833 195.908 143.587 202.014 143.587 209.547C143.587 217.079 148.833 223.185 155.303 223.185Z" fill="#263238"/>
<path d="M69.9138 223.185C76.3845 223.185 81.63 217.079 81.63 209.547C81.63 202.014 76.3845 195.908 69.9138 195.908C63.4431 195.908 58.1975 202.014 58.1975 209.547C58.1975 217.079 63.4431 223.185 69.9138 223.185Z" fill="#263238"/>
<path d="M168.028 137.239H123.569V202.995H168.028V137.239Z" fill="#407BFF"/>
<path opacity="0.2" d="M168.028 137.239H123.569V202.995H168.028V137.239Z" fill="black"/>
<path d="M212.905 153.591L212.488 154.004L214.258 156.423L214.675 156.009L212.905 153.591Z" fill="#407BFF"/>
<path d="M205.693 143.723L205.276 144.137L210.789 151.667L211.206 151.253L205.693 143.723Z" fill="#407BFF"/>
<path d="M168.028 202.989H223.244V174.455C223.245 172.336 222.596 170.287 221.414 168.676L204.234 145.175C202.413 142.686 200.149 140.688 197.599 139.317C195.049 137.947 192.274 137.238 189.466 137.239H168.028V202.989Z" fill="#407BFF"/>
<path d="M177.075 171.744V147.567C177.075 147.046 177.163 146.531 177.335 146.049C177.506 145.568 177.757 145.131 178.074 144.764C178.39 144.396 178.766 144.104 179.18 143.905C179.593 143.707 180.036 143.605 180.484 143.606H185.772C188.54 143.606 191.274 144.305 193.787 145.655C196.3 147.005 198.531 148.974 200.327 151.426L213.32 169.173C213.842 169.885 214.129 170.789 214.131 171.725C214.131 172.776 213.773 173.784 213.135 174.528C212.496 175.272 211.631 175.691 210.728 175.693H180.484C179.583 175.693 178.718 175.277 178.079 174.537C177.441 173.797 177.08 172.793 177.075 171.744V171.744Z" fill="white"/>
<path d="M223.244 195.219H216.427C216.059 195.219 215.696 195.107 215.377 194.894C215.057 194.68 214.79 194.374 214.604 194.004C214.417 193.634 214.317 193.213 214.313 192.784C214.309 192.355 214.401 191.932 214.58 191.558L215.731 189.159C215.913 188.774 216.18 188.452 216.505 188.228C216.83 188.004 217.2 187.885 217.578 187.883H223.244V195.219Z" fill="white"/>
<path d="M158.213 126.19H50.7559V202.989H158.213V126.19Z" fill="#407BFF"/>
<path opacity="0.6" d="M158.213 126.19H50.7559V202.989H158.213V126.19Z" fill="white"/>
<path opacity="0.5" d="M98.1413 191.283H79.8545V195.908H98.1413V191.283Z" fill="#407BFF"/>
<path opacity="0.5" d="M55.7755 191.283H50.7559V195.908H55.7755V191.283Z" fill="#407BFF"/>
<path opacity="0.4" d="M87.8774 126.19H50.7559V202.989H87.8774V126.19Z" fill="#407BFF"/>
<path opacity="0.4" d="M67.4367 126.19H66.8394V202.989H67.4367V126.19Z" fill="#407BFF"/>
<path d="M223.781 202.989H50.2185C49.7222 202.989 49.3198 203.457 49.3198 204.035V207.269C49.3198 207.847 49.7222 208.316 50.2185 208.316H223.781C224.277 208.316 224.68 207.847 224.68 207.269V204.035C224.68 203.457 224.277 202.989 223.781 202.989Z" fill="#263238"/>
<path d="M196.343 223.185C202.814 223.185 208.059 217.079 208.059 209.547C208.059 202.014 202.814 195.908 196.343 195.908C189.872 195.908 184.627 202.014 184.627 209.547C184.627 217.079 189.872 223.185 196.343 223.185Z" fill="#263238"/>
<path d="M196.343 218.324C200.507 218.324 203.883 214.395 203.883 209.547C203.883 204.699 200.507 200.769 196.343 200.769C192.178 200.769 188.802 204.699 188.802 209.547C188.802 214.395 192.178 218.324 196.343 218.324Z" fill="white"/>
<path d="M110.954 223.185C117.424 223.185 122.67 217.079 122.67 209.547C122.67 202.014 117.424 195.908 110.954 195.908C104.483 195.908 99.2373 202.014 99.2373 209.547C99.2373 217.079 104.483 223.185 110.954 223.185Z" fill="#263238"/>
<path d="M110.954 218.324C115.118 218.324 118.494 214.395 118.494 209.547C118.494 204.699 115.118 200.769 110.954 200.769C106.789 200.769 103.413 204.699 103.413 209.547C103.413 214.395 106.789 218.324 110.954 218.324Z" fill="white"/>
<path d="M126.226 239.223L121.568 239.14L120.302 226.566L124.955 226.656L126.226 239.223Z" fill="#407BFF"/>
<path d="M121.448 238.515L126.522 238.604C126.612 238.603 126.699 238.642 126.766 238.711C126.832 238.781 126.875 238.877 126.884 238.98L127.328 243.816C127.336 243.938 127.323 244.061 127.288 244.177C127.253 244.293 127.198 244.399 127.125 244.489C127.053 244.578 126.966 244.649 126.868 244.697C126.771 244.745 126.666 244.768 126.561 244.766C124.736 244.696 122.1 244.524 119.799 244.486C117.108 244.434 117.371 244.562 114.214 244.486C112.307 244.454 112.022 242.189 112.822 242.004C116.549 241.143 116.922 241.098 120.286 238.897C120.638 238.653 121.039 238.521 121.448 238.515Z" fill="#263238"/>
<path d="M116.899 77.1795C115.376 80.9687 113.743 84.5474 111.929 88.1198C111.019 89.8932 110.082 91.6602 109.068 93.3953C108.575 94.2629 108.044 95.1241 107.518 95.9853C106.991 96.8464 106.422 97.6949 105.813 98.5369L105.364 99.1748C105.136 99.5029 104.891 99.8139 104.63 100.106C104.457 100.303 104.274 100.486 104.082 100.655C103.871 100.843 103.647 101.012 103.413 101.159C102.901 101.49 102.345 101.72 101.769 101.841C100.721 102.043 99.6448 101.892 98.6673 101.408C97.9948 101.068 97.3659 100.621 96.7986 100.081C95.9432 99.2584 95.1809 98.3131 94.5299 97.2675C93.9543 96.361 93.4201 95.4199 92.9297 94.4479C92.0167 92.605 91.2023 90.6983 90.4911 88.7385C89.7869 86.8151 89.1705 84.8497 88.6444 82.8506C88.5151 82.3357 88.5494 81.7838 88.7411 81.2959C88.9327 80.808 89.2688 80.4168 89.688 80.1937C90.1071 79.9707 90.5812 79.9308 91.0235 80.0813C91.4658 80.2318 91.8468 80.5627 92.0968 81.0134L92.1297 81.0708C93.8524 84.3774 95.7294 87.5718 97.7521 90.6395C98.2255 91.3379 98.7304 92.0065 99.2646 92.6426C99.6927 93.1669 100.169 93.6353 100.684 94.0396C100.881 94.1736 101.04 94.2374 101.051 94.2118C101.062 94.1863 100.854 94.0651 100.503 94.1098C100.269 94.1562 100.046 94.2559 99.8455 94.4032C99.8181 94.4032 99.7907 94.4479 99.9496 94.1927L100.289 93.625C102.118 90.4397 103.806 87.1481 105.347 83.7628C106.948 80.3436 108.52 76.7968 110.016 73.3584V73.2946C110.462 72.2296 111.253 71.4142 112.214 71.0278C113.176 70.6414 114.231 70.7156 115.146 71.2341C116.061 71.7527 116.761 72.6731 117.093 73.7929C117.425 74.9126 117.361 76.14 116.916 77.205L116.899 77.1795Z" fill="#407BFF"/>
<path d="M92.2779 82.5954L91.0285 76.5607L86.1567 79.0039C86.1567 79.0039 86.5897 83.7947 89.9927 84.3879L92.2779 82.5954Z" fill="#263238"/>
<path d="M92.0202 81.1091C92.0202 81.1091 93.6039 83.4821 93.993 84.1328C93.445 84.7707 89.8556 86.8822 89.5706 86.6844C89.1158 85.1726 88.4746 83.1759 88.4746 83.1759L92.0202 81.1091Z" fill="#263238"/>
<path d="M87.3841 72.7205L85.5921 74.7235C85.4503 74.8865 85.3493 75.0914 85.3001 75.3162C85.2509 75.541 85.2552 75.7772 85.3127 75.9993L86.1566 78.9784L91.0283 76.5352L89.0281 72.931C88.9388 72.781 88.8228 72.6551 88.6881 72.5618C88.5535 72.4684 88.4031 72.4098 88.2473 72.3898C88.0915 72.3699 87.9338 72.389 87.7849 72.4461C87.636 72.5031 87.4993 72.5967 87.3841 72.7205Z" fill="#263238"/>
<path d="M90.1461 79.7694C89.9763 78.5446 91.0284 74.7044 91.9107 74.1558C92.793 73.6071 92.2888 76.2545 92.4039 77.1476C92.7217 79.5972 92.8313 81.9319 91.7518 81.8043C90.6722 81.6768 90.4201 81.9 90.1461 79.7694Z" fill="#263238"/>
<path opacity="0.2" d="M120.302 226.573L120.955 233.054L125.613 233.137L124.96 226.656L120.302 226.573Z" fill="black"/>
<path d="M113.135 69.9392C121.99 68.6633 130.561 70.0412 135.23 71.0938C135.7 71.2009 136.148 71.416 136.546 71.7264C136.944 72.0369 137.285 72.4365 137.55 72.902C137.814 73.3675 137.996 73.8896 138.085 74.4378C138.174 74.986 138.169 75.5494 138.069 76.095C134.594 95.4239 135.137 114.868 134.846 119.001L109.945 118.536C108.241 94.837 109.315 79.7439 109.973 73.588C110.076 72.6569 110.442 71.7923 111.015 71.1313C111.588 70.4704 112.334 70.0508 113.135 69.9392V69.9392Z" fill="#407BFF"/>
<path d="M128.862 56.275C128.073 60.1727 127.174 67.3556 129.476 70.2007C127.558 72.1782 125.059 74.4364 121.009 74.2515C116.959 74.0665 117.77 70.9024 118.894 69.2885C122.73 68.5613 122.73 65.2824 122.182 62.1566L128.862 56.275Z" fill="#FFB573"/>
<path opacity="0.2" d="M126.133 58.6736L122.166 62.1821C122.307 62.9077 122.393 63.6462 122.423 64.3893C123.881 64.2745 125.931 62.5968 126.144 60.8489C126.255 60.1291 126.251 59.3918 126.133 58.6736V58.6736Z" fill="black"/>
<path d="M129.991 50.3615C129.405 55.6881 129.301 58.8458 126.818 61.3911C123.092 65.2186 117.551 62.2778 116.751 56.8428C116.034 51.9436 117.108 44.0845 121.733 42.3111C122.757 41.9262 123.848 41.85 124.904 42.0896C125.96 42.3292 126.947 42.8767 127.772 43.6809C128.597 44.4852 129.233 45.5199 129.622 46.6882C130.01 47.8566 130.137 49.1204 129.991 50.3615V50.3615Z" fill="#FFB573"/>
<path d="M130.26 54.9864C128.451 56.2622 126.385 55.6243 126.215 54.2847C126.045 52.9451 127.388 50.6294 127.892 49.5003C127.75 47.5866 126.588 47.0252 126.796 45.6728C125.443 45.8196 118.061 46.2087 118.236 44.2694C118.412 42.3302 121.338 40.3335 124.812 40.8375C128.287 41.3414 130.561 43.102 130.232 45.5644C132.172 45.2008 133.065 49.0219 130.26 54.9864Z" fill="#263238"/>
<path d="M131.876 55.803C131.57 56.3695 131.17 56.8596 130.699 57.2451C130.229 57.6305 129.698 57.9035 129.136 58.0484C127.635 58.4248 126.944 56.8364 127.443 55.2416C127.876 53.7999 129.18 51.8734 130.66 52.2115C130.982 52.2896 131.282 52.4597 131.534 52.7065C131.785 52.9532 131.98 53.2689 132.101 53.6251C132.221 53.9813 132.264 54.3668 132.225 54.747C132.186 55.1272 132.066 55.4901 131.876 55.803V55.803Z" fill="#FFB573"/>
<path d="M124.396 172.325C124.21 145.073 129.388 118.899 129.388 118.899L109.978 118.536C109.978 118.536 112.208 157.895 112.987 174.385C113.792 191.526 119.113 231.797 119.113 231.797L126.993 231.931C126.993 231.931 125.492 193.835 124.396 172.325Z" fill="#407BFF"/>
<path opacity="0.4" d="M124.396 172.325C124.21 145.073 129.388 118.899 129.388 118.899L109.978 118.536C109.978 118.536 112.208 157.895 112.987 174.385C113.792 191.526 119.113 231.797 119.113 231.797L126.993 231.931C126.993 231.931 125.492 193.835 124.396 172.325Z" fill="black"/>
<path opacity="0.2" d="M125.152 133.897C119.618 142.713 122.106 159.298 124.374 171.023C124.464 158.096 125.408 145.195 127.197 132.436L125.152 133.897Z" fill="black"/>
<path d="M118.061 228.225L118.571 231.963L127.284 232.135L127.777 228.601L118.061 228.225Z" fill="#263238"/>
<path d="M123.848 51.2546C123.848 51.6884 123.607 52.0265 123.361 52.001C123.114 51.9754 122.939 51.6118 122.966 51.178C122.993 50.7443 123.207 50.4062 123.454 50.4253C123.7 50.4444 123.892 50.8144 123.848 51.2546Z" fill="#263238"/>
<path d="M119.02 50.6231C119.02 51.0632 118.779 51.3949 118.532 51.3758C118.286 51.3567 118.11 50.9803 118.138 50.5465C118.165 50.1127 118.379 49.7746 118.626 49.7938C118.872 49.8129 119.048 50.1893 119.02 50.6231Z" fill="#263238"/>
<path d="M120.012 50.974C119.492 52.2675 118.818 53.4699 118.012 54.5463C118.255 54.7809 118.54 54.9514 118.845 55.0461C119.151 55.1408 119.47 55.1574 119.782 55.0949L120.012 50.974Z" fill="#ED893E"/>
<path d="M121.306 56.6387C121.727 56.6146 122.139 56.4888 122.517 56.2691C122.894 56.0495 123.228 55.7408 123.498 55.3628C123.515 55.3358 123.522 55.3017 123.518 55.2682C123.514 55.2347 123.499 55.2045 123.476 55.1842C123.452 55.1639 123.423 55.1552 123.394 55.16C123.366 55.1648 123.34 55.1827 123.322 55.2097C123.014 55.6159 122.627 55.9307 122.193 56.1281C121.76 56.3256 121.292 56.4 120.829 56.3452C120.812 56.3409 120.794 56.341 120.778 56.3455C120.761 56.3501 120.745 56.3589 120.732 56.3715C120.718 56.384 120.707 56.3999 120.7 56.418C120.693 56.4361 120.689 56.4559 120.689 56.476C120.689 56.496 120.693 56.5158 120.7 56.5339C120.707 56.552 120.718 56.5679 120.732 56.5805C120.745 56.593 120.761 56.6019 120.778 56.6065C120.794 56.611 120.812 56.6111 120.829 56.6068C120.987 56.6296 121.146 56.6403 121.306 56.6387V56.6387Z" fill="#263238"/>
<path d="M124.637 49.7938C124.674 49.7931 124.71 49.7798 124.741 49.7555C124.766 49.7369 124.786 49.7128 124.803 49.6846C124.819 49.6565 124.83 49.6249 124.836 49.5916C124.841 49.5584 124.841 49.5241 124.835 49.4909C124.829 49.4578 124.818 49.4263 124.801 49.3983C124.618 49.0494 124.364 48.7571 124.063 48.5461C123.761 48.3352 123.421 48.2118 123.07 48.1862C123.012 48.1862 122.956 48.2131 122.915 48.261C122.874 48.3088 122.851 48.3737 122.851 48.4414C122.851 48.5108 122.874 48.5773 122.916 48.6264C122.959 48.6754 123.016 48.703 123.075 48.703V48.703C123.352 48.7298 123.619 48.8322 123.855 49.0018C124.091 49.1713 124.29 49.4034 124.434 49.679C124.456 49.7177 124.486 49.7488 124.522 49.7691C124.558 49.7893 124.598 49.7978 124.637 49.7938V49.7938Z" fill="#263238"/>
<path d="M116.943 48.6009C116.979 48.6069 117.015 48.6024 117.048 48.5879C117.082 48.5734 117.111 48.5494 117.135 48.518C117.309 48.2681 117.533 48.0704 117.787 47.9417C118.04 47.813 118.317 47.7568 118.593 47.778C118.651 47.7853 118.709 47.7661 118.755 47.7244C118.801 47.6828 118.831 47.6219 118.839 47.5547C118.843 47.5212 118.841 47.4871 118.834 47.4544C118.826 47.4218 118.813 47.3912 118.795 47.3645C118.777 47.3377 118.755 47.3154 118.73 47.2988C118.704 47.2822 118.676 47.2716 118.647 47.2677C118.299 47.2377 117.95 47.3048 117.629 47.4634C117.308 47.6221 117.024 47.8677 116.801 48.1799C116.764 48.2317 116.746 48.2982 116.751 48.3651C116.756 48.4319 116.784 48.4938 116.828 48.5371C116.859 48.573 116.9 48.5955 116.943 48.6009V48.6009Z" fill="#263238"/>
<path d="M150.897 239.223L146.234 239.14L144.316 226.566L148.979 226.656L150.897 239.223Z" fill="#407BFF"/>
<path d="M145.982 238.515L151.056 238.604C151.147 238.604 151.234 238.643 151.303 238.712C151.371 238.781 151.416 238.876 151.429 238.98L152.015 243.816C152.029 243.936 152.02 244.058 151.989 244.174C151.958 244.29 151.906 244.397 151.836 244.487C151.766 244.578 151.68 244.649 151.585 244.697C151.489 244.746 151.385 244.769 151.281 244.766C149.451 244.696 148.875 244.524 146.574 244.485C143.878 244.434 145.127 244.562 141.965 244.485C140.058 244.454 139.685 242.202 140.496 242.004C143.061 241.366 143.702 240.173 144.831 238.897C145.157 238.6 145.57 238.463 145.982 238.515V238.515Z" fill="#263238"/>
<path d="M146.952 239.082C146.146 239.114 145.713 239.082 145.505 238.655C145.297 238.227 144.568 236.984 144.623 236.518C144.677 236.052 147.949 235.669 148.272 236.422C148.596 237.175 148.596 239.031 146.952 239.082Z" fill="#263238"/>
<path d="M121.272 239.082C120.768 239.114 120.499 239.082 120.379 238.655C120.129 237.972 119.955 237.253 119.864 236.518C119.902 236.046 121.957 235.669 122.149 236.422C122.341 237.175 122.297 239.031 121.272 239.082Z" fill="#263238"/>
<path opacity="0.2" d="M144.316 226.573L145.308 233.054L149.971 233.137L148.979 226.656L144.316 226.573Z" fill="black"/>
<path d="M142.924 169.103C140.732 144.556 138.156 124.449 134.857 119.001L118.368 118.695C118.368 118.695 127.985 157.2 131.69 173.428C135.526 190.301 143.094 230.164 143.094 230.164L150.601 230.285C150.601 230.285 147.494 188.279 142.924 169.103Z" fill="#407BFF"/>
<path opacity="0.4" d="M142.924 169.103C140.732 144.556 138.156 124.449 134.857 119.001L118.368 118.695C118.368 118.695 127.985 157.2 131.69 173.428C135.526 190.301 143.094 230.164 143.094 230.164L150.601 230.285C150.601 230.285 147.494 188.279 142.924 169.103Z" fill="black"/>
<path d="M142.151 228.225L142.76 231.963L151.188 232.135L151.561 228.601L142.151 228.225Z" fill="#263238"/>
<path d="M123.941 78.1938C123.892 76.8287 122.544 75.0042 121.667 74.2578C128.161 72.1719 129.377 69.4288 129.377 69.4288C129.844 69.5701 130.292 69.7847 130.709 70.0667C131.093 74.3025 126.588 77.2178 123.941 78.1938Z" fill="white"/>
<path d="M120.111 74.1494C118.654 74.9383 117.459 76.26 116.708 77.9131C114.006 72.2994 117.804 69.0588 117.804 69.0588C118.224 68.9206 118.664 68.8859 119.097 68.9567C118.368 70.8322 119.206 73.3009 120.111 74.1494Z" fill="white"/>
<path d="M158.662 80.6378L117.411 88.063L122.034 122.862L163.285 115.437L158.662 80.6378Z" fill="#407BFF"/>
<path opacity="0.9" d="M158.662 80.6378L117.411 88.063L122.034 122.862L163.285 115.437L158.662 80.6378Z" fill="white"/>
<path opacity="0.2" d="M158.665 80.6345L137.16 84.5056L141.782 119.305L163.288 115.434L158.665 80.6345Z" fill="#407BFF"/>
<path opacity="0.3" d="M128.598 111.877L123.42 112.809L124.201 118.684L129.378 117.752L128.598 111.877Z" fill="#407BFF"/>
<path opacity="0.3" d="M127.63 104.588L122.452 105.52L123.233 111.395L128.41 110.463L127.63 104.588Z" fill="#407BFF"/>
<path opacity="0.5" d="M130.708 85.6719L123.407 86.986L123.797 89.9175L131.097 88.6034L130.708 85.6719Z" fill="#407BFF"/>
<path opacity="0.5" d="M153.541 81.555L148.413 82.4781L148.802 85.4096L153.931 84.4865L153.541 81.555Z" fill="#407BFF"/>
<path d="M136.578 71.7508C139.74 73.5092 142.789 75.5303 145.702 77.7983C147.232 78.9647 148.696 80.2431 150.086 81.6258C150.848 82.3928 151.566 83.2175 152.234 84.0945C152.617 84.6113 152.971 85.1568 153.292 85.7276C153.707 86.4521 154.033 87.2399 154.262 88.0687C154.419 88.6304 154.511 89.2139 154.536 89.8038C154.544 89.9057 154.544 90.0082 154.536 90.11V90.3269V90.7671L154.509 91.6474L154.443 92.4703C154.399 93.0189 154.35 93.5675 154.273 94.0842C154.196 94.6009 154.147 95.1368 154.059 95.6407C153.769 97.7012 153.341 99.6596 152.914 101.612C152.023 105.479 150.925 109.278 149.626 112.986C149.452 113.486 149.128 113.896 148.714 114.139C148.3 114.382 147.824 114.442 147.375 114.307C146.926 114.172 146.534 113.852 146.273 113.405C146.011 112.959 145.898 112.418 145.954 111.882V111.831C146.343 108.004 146.82 104.138 147.165 100.349C147.357 98.4348 147.505 96.5657 147.604 94.7349C147.637 94.2756 147.637 93.8355 147.659 93.3825C147.681 92.9296 147.659 92.4958 147.659 92.0684V91.4305V90.8436V90.5502V90.4035C147.659 90.4035 147.659 90.2567 147.659 90.3397C147.654 90.4417 147.654 90.5439 147.659 90.6459C147.659 90.716 147.598 90.5757 147.467 90.4035C147.297 90.1764 147.114 89.9633 146.919 89.7656C146.437 89.2186 145.927 88.7072 145.39 88.2346C144.228 87.2075 142.924 86.1996 141.581 85.2364C138.891 83.3226 135.997 81.4854 133.175 79.7439H133.137C132.26 79.1906 131.604 78.2619 131.305 77.1545C131.007 76.0472 131.091 74.8482 131.539 73.8116C131.987 72.7749 132.764 71.9821 133.706 71.601C134.648 71.2199 135.68 71.2805 136.584 71.77L136.578 71.7508Z" fill="#407BFF"/>
<path d="M146.354 110.861L143.56 115.276L148.864 117.534C148.864 117.534 150.979 113.177 149.171 111.499L146.354 110.861Z" fill="#263238"/>
<path d="M144.261 120.915L146.234 121.342C146.614 121.421 147.005 121.341 147.34 121.117C147.675 120.893 147.931 120.539 148.064 120.118L148.864 117.566L143.576 115.276L142.973 118.663C142.887 119.161 142.975 119.677 143.216 120.099C143.458 120.522 143.834 120.815 144.261 120.915V120.915Z" fill="#263238"/>
<path d="M145.894 112.086C145.894 112.086 145.993 109.082 146.058 108.297C146.831 108.24 150.744 109.292 150.842 109.662C150.36 111.168 149.746 113.171 149.746 113.171L145.894 112.086Z" fill="#263238"/>
<path d="M132.512 49.4238C129.865 49.0793 118.993 45.9982 117.984 44.7798C117.913 42.4259 119.08 40.0464 119.798 39.5106C121.798 37.9796 126.199 37.9222 127.596 38.3815C128.994 38.8408 132.819 41.1054 133.454 43.2871C133.948 45.0158 132.512 49.4238 132.512 49.4238Z" fill="#407BFF"/>
<path d="M121.535 44.0462C118.198 43.4402 115.025 43.7081 113.902 45.6729C112.647 47.8673 116.779 44.6076 119.245 46.011C123.371 48.3713 122.39 48.7413 128.643 48.5626C125.426 46.6617 125.404 44.7479 121.535 44.0462Z" fill="#407BFF"/>
<path opacity="0.6" d="M121.535 44.0462C118.198 43.4402 115.025 43.7081 113.902 45.6729C112.647 47.8673 116.779 44.6076 119.245 46.011C123.371 48.3713 122.39 48.7413 128.643 48.5626C125.426 46.6617 125.404 44.7479 121.535 44.0462Z" fill="white"/>
<path d="M128.977 53.1811C129.043 53.126 129.088 53.0432 129.102 52.9504C129.117 52.8576 129.099 52.7619 129.054 52.6835C129.007 52.6067 128.935 52.5548 128.855 52.5393C128.775 52.5237 128.693 52.5458 128.627 52.6006C127.482 53.5199 126.416 54.5645 125.443 55.72C124.248 54.272 120.889 52.7473 119.13 52.7792C117.875 52.7792 117.042 52.7091 116.105 53.7871C115.305 54.6994 115.968 59.5284 116.472 60.8935C116.763 61.6424 117.195 62.305 117.737 62.8319C118.279 63.3588 118.916 63.7364 119.601 63.9364C121.453 64.3255 125.41 64.5743 125.574 61.423C125.609 60.7155 125.688 60.012 125.81 59.3179C126.072 59.3702 126.338 59.398 126.605 59.4008C127.406 59.421 128.189 59.1267 128.829 58.5651C128.861 58.537 128.888 58.5016 128.908 58.4612C128.929 58.4208 128.942 58.3761 128.947 58.3298C128.952 58.2834 128.949 58.2363 128.938 58.1913C128.927 58.1463 128.909 58.1042 128.884 58.0676C128.86 58.0301 128.829 57.9986 128.794 57.9751C128.758 57.9516 128.719 57.9364 128.679 57.9305C128.639 57.9245 128.598 57.928 128.559 57.9405C128.52 57.9531 128.483 57.9746 128.451 58.0038C128.091 58.3007 127.683 58.5103 127.252 58.6199C126.821 58.7295 126.375 58.7369 125.941 58.6417C126.117 57.7103 126.205 57.1107 125.815 56.3324C126.776 55.1617 127.836 54.106 128.977 53.1811V53.1811Z" fill="#407BFF"/>
<path opacity="0.6" d="M128.977 53.1811C129.043 53.126 129.088 53.0432 129.102 52.9504C129.117 52.8576 129.099 52.7619 129.054 52.6835C129.007 52.6067 128.935 52.5548 128.855 52.5393C128.775 52.5237 128.693 52.5458 128.627 52.6006C127.482 53.5199 126.416 54.5645 125.443 55.72C124.248 54.272 120.889 52.7473 119.13 52.7792C117.875 52.7792 117.042 52.7091 116.105 53.7871C115.305 54.6994 115.968 59.5284 116.472 60.8935C116.763 61.6424 117.195 62.305 117.737 62.8319C118.279 63.3588 118.916 63.7364 119.601 63.9364C121.453 64.3255 125.41 64.5743 125.574 61.423C125.609 60.7155 125.688 60.012 125.81 59.3179C126.072 59.3702 126.338 59.398 126.605 59.4008C127.406 59.421 128.189 59.1267 128.829 58.5651C128.861 58.537 128.888 58.5016 128.908 58.4612C128.929 58.4208 128.942 58.3761 128.947 58.3298C128.952 58.2834 128.949 58.2363 128.938 58.1913C128.927 58.1463 128.909 58.1042 128.884 58.0676C128.86 58.0301 128.829 57.9986 128.794 57.9751C128.758 57.9516 128.719 57.9364 128.679 57.9305C128.639 57.9245 128.598 57.928 128.559 57.9405C128.52 57.9531 128.483 57.9746 128.451 58.0038C128.091 58.3007 127.683 58.5103 127.252 58.6199C126.821 58.7295 126.375 58.7369 125.941 58.6417C126.117 57.7103 126.205 57.1107 125.815 56.3324C126.776 55.1617 127.836 54.106 128.977 53.1811V53.1811Z" fill="white"/>
</svg>
