<svg width="21" height="20" viewBox="0 0 21 20" fill="none" xmlns="http://www.w3.org/2000/svg">
<path d="M20.7144 17.2913L16.6248 13.3971C16.4403 13.2214 16.1901 13.1237 15.9275 13.1237H15.2589C16.391 11.7449 17.0637 10.0107 17.0637 8.12421C17.0637 3.63636 13.2449 0 8.53187 0C3.81883 0 0 3.63636 0 8.12421C0 12.612 3.81883 16.2484 8.53187 16.2484C10.5131 16.2484 12.3343 15.6079 13.7823 14.5298V15.1665C13.7823 15.4165 13.8848 15.6547 14.0694 15.8305L18.1589 19.7246C18.5445 20.0918 19.168 20.0918 19.5495 19.7246L20.7103 18.6193C21.0959 18.2521 21.0959 17.6584 20.7144 17.2913ZM8.53187 13.1237C5.63186 13.1237 3.28149 10.8896 3.28149 8.12421C3.28149 5.36276 5.62776 3.12469 8.53187 3.12469C11.4319 3.12469 13.7823 5.35885 13.7823 8.12421C13.7823 10.8857 11.436 13.1237 8.53187 13.1237Z" fill="black" fill-opacity="0.5"/>
</svg>
