<svg width="22" height="22" viewBox="0 0 22 22" fill="none" xmlns="http://www.w3.org/2000/svg">
<path d="M19.5312 0H2.34375C1.0498 0 0 1.04819 0 2.34016V19.5013C0 20.7933 1.0498 21.8414 2.34375 21.8414H19.5312C20.8252 21.8414 21.875 20.7933 21.875 19.5013V2.34016C21.875 1.04819 20.8252 0 19.5312 0ZM17.1436 7.74201C17.1533 7.87852 17.1533 8.01991 17.1533 8.15642C17.1533 12.3833 13.9307 17.2538 8.04199 17.2538C6.22559 17.2538 4.54102 16.7272 3.125 15.8204C3.38379 15.8497 3.63281 15.8594 3.89648 15.8594C5.39551 15.8594 6.77246 15.3524 7.87109 14.4943C6.46484 14.4651 5.2832 13.5436 4.87793 12.2761C5.37109 12.3492 5.81543 12.3492 6.32324 12.2176C4.8584 11.9202 3.75977 10.6331 3.75977 9.07785V9.03885C4.18457 9.27774 4.68262 9.424 5.20508 9.4435C4.76583 9.15178 4.40575 8.75602 4.15697 8.29154C3.90818 7.82706 3.77843 7.30831 3.7793 6.78158C3.7793 6.18679 3.93555 5.64075 4.21387 5.16784C5.79102 7.10822 8.15918 8.37581 10.8154 8.51231C10.3613 6.3428 11.9873 4.5828 13.9404 4.5828C14.8633 4.5828 15.6934 4.96795 16.2793 5.592C17.002 5.45549 17.6953 5.18734 18.3105 4.82169C18.0713 5.56274 17.5684 6.18679 16.9043 6.58169C17.5488 6.51343 18.1738 6.33305 18.75 6.0844C18.3154 6.72307 17.7686 7.28861 17.1436 7.74201Z" fill="#203C61"/>
</svg>
