<svg width="375" height="267" viewBox="0 0 375 267" fill="none" xmlns="http://www.w3.org/2000/svg">
<path fill-rule="evenodd" clip-rule="evenodd" d="M0 59L31.25 85.963C62.5 112.926 125 166.852 187.5 170.704C250 174.556 312.5 128.333 343.75 105.222L375 82.1111V267H343.75C312.5 267 250 267 187.5 267C125 267 62.5 267 31.25 267H0V59Z" fill="#E06D60"/>
<path d="M323 223.192H49V223.351H323V223.192Z" fill="#EBEBEB"/>
<path d="M178.876 194.741H73.0628C72.2339 194.739 71.4394 194.355 70.8538 193.672C70.2681 192.989 69.9392 192.063 69.9392 191.098V17.949C69.9464 16.9896 70.2785 16.0722 70.8634 15.3962C71.4482 14.7202 72.2386 14.3401 73.0628 14.3384H178.876C179.706 14.3384 180.502 14.7222 181.089 15.4053C181.676 16.0884 182.005 17.0149 182.005 17.9809V191.098C182.005 192.064 181.676 192.991 181.089 193.674C180.502 194.357 179.706 194.741 178.876 194.741ZM73.0628 14.466C72.2702 14.4677 71.5106 14.8354 70.9506 15.4884C70.3907 16.1414 70.0762 17.0264 70.0762 17.949V191.098C70.0762 192.021 70.3907 192.906 70.9506 193.559C71.5106 194.212 72.2702 194.58 73.0628 194.581H178.876C179.669 194.58 180.429 194.212 180.99 193.559C181.551 192.906 181.867 192.022 181.868 191.098V17.949C181.867 17.0258 181.551 16.1408 180.99 15.488C180.429 14.8352 179.669 14.4677 178.876 14.466H73.0628Z" fill="#EBEBEB"/>
<path d="M297.414 194.741H191.595C190.765 194.739 189.97 194.355 189.384 193.672C188.797 192.989 188.467 192.064 188.466 191.098V17.949C188.474 16.989 188.808 16.0717 189.394 15.3958C189.979 14.72 190.77 14.34 191.595 14.3384H297.414C298.237 14.3417 299.026 14.7226 299.61 15.3985C300.193 16.0743 300.525 16.9907 300.532 17.949V191.098C300.532 192.062 300.204 192.987 299.619 193.669C299.035 194.352 298.242 194.737 297.414 194.741ZM191.595 14.466C190.802 14.4677 190.042 14.8352 189.481 15.488C188.92 16.1408 188.604 17.0258 188.603 17.949V191.098C188.604 192.022 188.92 192.906 189.481 193.559C190.042 194.212 190.802 194.58 191.595 194.581H297.414C298.207 194.58 298.967 194.212 299.528 193.559C300.089 192.906 300.404 192.022 300.406 191.098V17.949C300.404 17.0258 300.089 16.1408 299.528 15.488C298.967 14.8352 298.207 14.4677 297.414 14.466H191.595Z" fill="#EBEBEB"/>
<path d="M158.841 229.265H144.593V229.424H158.841V229.265Z" fill="#EBEBEB"/>
<path d="M107.395 227.536H77.748V227.695H107.395V227.536Z" fill="#EBEBEB"/>
<path d="M144.045 235.191H129.622V235.35H144.045V235.191Z" fill="#EBEBEB"/>
<path d="M211.789 234.119H190.51V234.279H211.789V234.119Z" fill="#EBEBEB"/>
<path d="M222.524 234.119H216.666V234.279H222.524V234.119Z" fill="#EBEBEB"/>
<path d="M295.551 231.427H265.652V231.587H295.551V231.427Z" fill="#EBEBEB"/>
<path d="M112.371 80.471H152.923C153.747 80.471 154.537 80.8521 155.12 81.5304C155.703 82.2087 156.03 83.1287 156.03 84.088V223.192H109.28V84.0816C109.281 83.1268 109.607 82.2113 110.186 81.5349C110.765 80.8585 111.55 80.4761 112.371 80.471Z" fill="#F5F5F5"/>
<path d="M119.177 88.9043H113.149V104.527H119.177V88.9043Z" fill="#EBEBEB"/>
<path d="M152.144 88.9043H146.116V104.527H152.144V88.9043Z" fill="#EBEBEB"/>
<path d="M130.164 88.9043H124.136V104.527H130.164V88.9043Z" fill="#EBEBEB"/>
<path d="M141.157 88.9043H135.129V104.527H141.157V88.9043Z" fill="#EBEBEB"/>
<path d="M119.177 113.566H113.149V129.189H119.177V113.566Z" fill="#EBEBEB"/>
<path d="M152.144 113.566H146.116V129.189H152.144V113.566Z" fill="#EBEBEB"/>
<path d="M130.164 113.566H124.136V129.189H130.164V113.566Z" fill="#EBEBEB"/>
<path d="M141.157 113.566H135.129V129.189H141.157V113.566Z" fill="#EBEBEB"/>
<path d="M119.177 138.228H113.149V153.85H119.177V138.228Z" fill="#EBEBEB"/>
<path d="M152.144 138.228H146.116V153.85H152.144V138.228Z" fill="#EBEBEB"/>
<path d="M130.164 138.228H124.136V153.85H130.164V138.228Z" fill="#EBEBEB"/>
<path d="M141.157 138.228H135.129V153.85H141.157V138.228Z" fill="#EBEBEB"/>
<path d="M119.177 162.89H113.149V178.512H119.177V162.89Z" fill="#EBEBEB"/>
<path d="M152.144 162.89H146.116V178.512H152.144V162.89Z" fill="#EBEBEB"/>
<path d="M130.164 162.89H124.136V178.512H130.164V162.89Z" fill="#EBEBEB"/>
<path d="M141.157 162.89H135.129V178.512H141.157V162.89Z" fill="#EBEBEB"/>
<path d="M119.177 187.551H113.149V203.174H119.177V187.551Z" fill="#EBEBEB"/>
<path d="M152.144 187.551H146.116V203.174H152.144V187.551Z" fill="#EBEBEB"/>
<path d="M130.164 187.551H124.136V203.174H130.164V187.551Z" fill="#EBEBEB"/>
<path d="M141.157 187.551H135.129V203.174H141.157V187.551Z" fill="#EBEBEB"/>
<path d="M256.144 93.4398H285.188C285.52 93.4398 285.848 93.5159 286.155 93.6637C286.461 93.8115 286.74 94.0281 286.974 94.3012C287.209 94.5743 287.395 94.8985 287.522 95.2552C287.649 95.612 287.714 95.9944 287.714 96.3806V223.192H253.645V96.387C253.644 95.6115 253.906 94.8666 254.374 94.3146C254.842 93.7627 255.478 93.4483 256.144 93.4398Z" fill="#F5F5F5"/>
<path d="M263.443 101.108H257.963V115.308H263.443V101.108Z" fill="#EBEBEB"/>
<path d="M273.433 101.108H267.953V115.308H273.433V101.108Z" fill="#EBEBEB"/>
<path d="M283.424 101.108H277.944V115.308H283.424V101.108Z" fill="#EBEBEB"/>
<path d="M263.443 123.53H257.963V137.73H263.443V123.53Z" fill="#EBEBEB"/>
<path d="M273.433 123.53H267.953V137.73H273.433V123.53Z" fill="#EBEBEB"/>
<path d="M283.424 123.53H277.944V137.73H283.424V123.53Z" fill="#EBEBEB"/>
<path d="M263.443 145.953H257.963V160.153H263.443V145.953Z" fill="#EBEBEB"/>
<path d="M273.433 145.953H267.953V160.153H273.433V145.953Z" fill="#EBEBEB"/>
<path d="M283.424 145.953H277.944V160.153H283.424V145.953Z" fill="#EBEBEB"/>
<path d="M263.443 168.369H257.963V182.569H263.443V168.369Z" fill="#EBEBEB"/>
<path d="M273.433 168.369H267.953V182.569H273.433V168.369Z" fill="#EBEBEB"/>
<path d="M283.424 168.369H277.944V182.569H283.424V168.369Z" fill="#EBEBEB"/>
<path d="M263.443 190.792H257.963V204.992H263.443V190.792Z" fill="#EBEBEB"/>
<path d="M273.433 190.792H267.953V204.992H273.433V190.792Z" fill="#EBEBEB"/>
<path d="M283.424 190.792H277.944V204.992H283.424V190.792Z" fill="#EBEBEB"/>
<path d="M189.611 57.1489H236.789C237.746 57.1489 238.665 57.5918 239.342 58.3801C240.019 59.1685 240.4 60.2378 240.4 61.3527V223.192H186V61.3527C186 60.2378 186.38 59.1685 187.058 58.3801C187.735 57.5918 188.654 57.1489 189.611 57.1489Z" fill="#F5F5F5"/>
<path d="M197.53 66.96H190.516V85.1342H197.53V66.96Z" fill="#EBEBEB"/>
<path d="M235.884 66.96H228.87V85.1342H235.884V66.96Z" fill="#EBEBEB"/>
<path d="M210.315 66.96H203.3V85.1342H210.315V66.96Z" fill="#EBEBEB"/>
<path d="M223.1 66.96H216.085V85.1342H223.1V66.96Z" fill="#EBEBEB"/>
<path d="M197.53 95.6534H190.516V113.828H197.53V95.6534Z" fill="#EBEBEB"/>
<path d="M235.884 95.6534H228.87V113.828H235.884V95.6534Z" fill="#EBEBEB"/>
<path d="M210.315 95.6534H203.3V113.828H210.315V95.6534Z" fill="#EBEBEB"/>
<path d="M223.1 95.6534H216.085V113.828H223.1V95.6534Z" fill="#EBEBEB"/>
<path d="M197.53 124.347H190.516V142.521H197.53V124.347Z" fill="#EBEBEB"/>
<path d="M235.884 124.347H228.87V142.521H235.884V124.347Z" fill="#EBEBEB"/>
<path d="M210.315 124.347H203.3V142.521H210.315V124.347Z" fill="#EBEBEB"/>
<path d="M223.1 124.347H216.085V142.521H223.1V124.347Z" fill="#EBEBEB"/>
<path d="M197.53 153.04H190.516V171.214H197.53V153.04Z" fill="#EBEBEB"/>
<path d="M235.884 153.04H228.87V171.214H235.884V153.04Z" fill="#EBEBEB"/>
<path d="M210.315 153.04H203.3V171.214H210.315V153.04Z" fill="#EBEBEB"/>
<path d="M223.1 153.04H216.085V171.214H223.1V153.04Z" fill="#EBEBEB"/>
<path d="M197.53 181.727H190.516V199.902H197.53V181.727Z" fill="#EBEBEB"/>
<path d="M235.884 181.727H228.87V199.902H235.884V181.727Z" fill="#EBEBEB"/>
<path d="M210.315 181.727H203.3V199.902H210.315V181.727Z" fill="#EBEBEB"/>
<path d="M223.1 181.727H216.085V199.902H223.1V181.727Z" fill="#EBEBEB"/>
<path d="M186 116.615H156.03V223.192H186V116.615Z" fill="#E6E6E6"/>
<path d="M253.645 128.028H240.405V223.192H253.645V128.028Z" fill="#E6E6E6"/>
<path d="M109.263 223.192H83.0361V178.697L109.263 168.369V223.192Z" fill="#E6E6E6"/>
<path d="M279.708 39.4595C283.999 35.2939 292.728 27.1669 285.221 26.0059C278.009 24.8895 267.383 29.8015 263.991 34.1138C263.991 29.9865 262.32 26.0569 255.952 22.8801C246.154 17.9809 244.636 35.7851 245.151 39.0512C241.211 36.8504 228.771 37.2587 237.347 43.4656H280.88C280.88 43.4656 289.868 36.927 279.708 39.4595Z" fill="#F5F5F5"/>
<path d="M83.3049 60.9062C83.2721 58.5331 83.0529 53.8891 86.6587 53.2512C90.1221 52.6133 92.473 55.4137 92.0784 57.8697C93.8101 55.5158 96.1446 53.2831 100.123 51.4905C106.255 48.6965 99.4326 58.8393 97.8434 60.702C100.403 59.4262 105.4 59.675 99.2353 63.209H81.1513C81.1513 63.209 80.1594 59.4581 83.3049 60.9062Z" fill="#FAFAFA"/>
<path d="M159.186 32.7486H100.934C100.934 32.7486 104.31 27.977 109.582 29.4825C107.099 25.8017 105.778 12.0036 114.086 10.2813C118.311 9.40732 123.298 18.3509 123.402 23.0396C125.484 11.8186 131.238 -2.43875 140.072 0.355313C148.906 3.14938 142.061 23.5116 142.061 23.5116C142.061 23.5116 150.55 9.12026 157.597 15.5058C161.795 19.3333 153.915 28.06 153.915 28.06C153.915 28.06 163.565 27.977 159.186 32.7486Z" fill="#F3F3F3"/>
<path d="M186 252C244.681 252 292.252 248.767 292.252 244.779C292.252 240.791 244.681 237.558 186 237.558C127.319 237.558 79.7483 240.791 79.7483 244.779C79.7483 248.767 127.319 252 186 252Z" fill="#F5F5F5"/>
<path d="M157.608 195.908C154.544 195.985 151.627 197.456 149.484 200.006C147.34 202.556 146.14 205.982 146.14 209.55C146.14 213.118 147.34 216.544 149.484 219.094C151.627 221.644 154.544 223.115 157.608 223.192H159.953V195.908H157.608Z" fill="#263238"/>
<path d="M242.992 195.908C241.432 195.869 239.88 196.193 238.429 196.861C236.978 197.528 235.656 198.527 234.54 199.798C233.425 201.068 232.539 202.586 231.934 204.26C231.328 205.935 231.017 207.733 231.017 209.55C231.017 211.367 231.328 213.165 231.934 214.84C232.539 216.514 233.425 218.032 234.54 219.302C235.656 220.573 236.978 221.571 238.429 222.239C239.88 222.907 241.432 223.231 242.992 223.192H245.332V195.908H242.992Z" fill="#263238"/>
<path d="M204.303 223.185C210.774 223.185 216.02 217.079 216.02 209.547C216.02 202.014 210.774 195.908 204.303 195.908C197.833 195.908 192.587 202.014 192.587 209.547C192.587 217.079 197.833 223.185 204.303 223.185Z" fill="#263238"/>
<path d="M118.914 223.185C125.384 223.185 130.63 217.079 130.63 209.547C130.63 202.014 125.384 195.908 118.914 195.908C112.443 195.908 107.198 202.014 107.198 209.547C107.198 217.079 112.443 223.185 118.914 223.185Z" fill="#263238"/>
<path d="M217.028 137.239H172.569V202.995H217.028V137.239Z" fill="#407BFF"/>
<path opacity="0.2" d="M217.028 137.239H172.569V202.995H217.028V137.239Z" fill="black"/>
<path d="M261.905 153.591L261.488 154.004L263.258 156.423L263.675 156.009L261.905 153.591Z" fill="#407BFF"/>
<path d="M254.693 143.723L254.276 144.137L259.789 151.667L260.206 151.253L254.693 143.723Z" fill="#407BFF"/>
<path d="M217.028 202.989H272.244V174.455C272.245 172.336 271.596 170.287 270.414 168.676L253.234 145.175C251.413 142.686 249.149 140.688 246.599 139.317C244.049 137.947 241.274 137.238 238.466 137.239H217.028V202.989Z" fill="#407BFF"/>
<path d="M226.075 171.744V147.567C226.075 147.046 226.163 146.531 226.335 146.049C226.506 145.568 226.757 145.131 227.074 144.764C227.39 144.396 227.766 144.104 228.18 143.905C228.593 143.707 229.036 143.605 229.484 143.606H234.772C237.54 143.606 240.274 144.305 242.787 145.655C245.3 147.005 247.531 148.974 249.327 151.426L262.32 169.173C262.842 169.885 263.129 170.789 263.131 171.725C263.131 172.776 262.773 173.784 262.135 174.528C261.496 175.272 260.631 175.691 259.728 175.693H229.484C228.583 175.693 227.718 175.277 227.079 174.537C226.441 173.797 226.08 172.793 226.075 171.744Z" fill="white"/>
<path d="M272.244 195.219H265.427C265.059 195.219 264.696 195.107 264.377 194.894C264.057 194.68 263.79 194.374 263.604 194.004C263.417 193.634 263.317 193.213 263.313 192.784C263.309 192.355 263.401 191.932 263.58 191.558L264.731 189.159C264.913 188.774 265.18 188.452 265.505 188.228C265.83 188.004 266.2 187.885 266.578 187.883H272.244V195.219Z" fill="white"/>
<path d="M207.213 126.19H99.7559V202.989H207.213V126.19Z" fill="#407BFF"/>
<path opacity="0.6" d="M207.213 126.19H99.7559V202.989H207.213V126.19Z" fill="white"/>
<path opacity="0.5" d="M147.141 191.283H128.854V195.908H147.141V191.283Z" fill="#407BFF"/>
<path opacity="0.5" d="M104.776 191.283H99.7559V195.908H104.776V191.283Z" fill="#407BFF"/>
<path opacity="0.4" d="M136.877 126.19H99.7559V202.989H136.877V126.19Z" fill="#407BFF"/>
<path opacity="0.4" d="M116.437 126.19H115.839V202.989H116.437V126.19Z" fill="#407BFF"/>
<path d="M272.781 202.989H99.2185C98.7222 202.989 98.3198 203.457 98.3198 204.035V207.269C98.3198 207.847 98.7222 208.316 99.2185 208.316H272.781C273.277 208.316 273.68 207.847 273.68 207.269V204.035C273.68 203.457 273.277 202.989 272.781 202.989Z" fill="#263238"/>
<path d="M245.343 223.185C251.814 223.185 257.059 217.079 257.059 209.547C257.059 202.014 251.814 195.908 245.343 195.908C238.872 195.908 233.627 202.014 233.627 209.547C233.627 217.079 238.872 223.185 245.343 223.185Z" fill="#263238"/>
<path d="M245.343 218.324C249.507 218.324 252.883 214.395 252.883 209.547C252.883 204.699 249.507 200.769 245.343 200.769C241.178 200.769 237.802 204.699 237.802 209.547C237.802 214.395 241.178 218.324 245.343 218.324Z" fill="white"/>
<path d="M159.954 223.185C166.424 223.185 171.67 217.079 171.67 209.547C171.67 202.014 166.424 195.908 159.954 195.908C153.483 195.908 148.237 202.014 148.237 209.547C148.237 217.079 153.483 223.185 159.954 223.185Z" fill="#263238"/>
<path d="M159.954 218.324C164.118 218.324 167.494 214.395 167.494 209.547C167.494 204.699 164.118 200.769 159.954 200.769C155.789 200.769 152.413 204.699 152.413 209.547C152.413 214.395 155.789 218.324 159.954 218.324Z" fill="white"/>
<path d="M175.226 239.223L170.568 239.14L169.302 226.566L173.955 226.656L175.226 239.223Z" fill="#407BFF"/>
<path d="M170.448 238.515L175.522 238.604C175.612 238.603 175.699 238.642 175.766 238.711C175.832 238.781 175.875 238.877 175.884 238.98L176.328 243.816C176.336 243.938 176.323 244.061 176.288 244.177C176.253 244.293 176.198 244.399 176.125 244.489C176.053 244.578 175.966 244.649 175.868 244.697C175.771 244.745 175.666 244.768 175.561 244.766C173.736 244.696 171.1 244.524 168.799 244.486C166.108 244.434 166.371 244.562 163.214 244.486C161.307 244.454 161.022 242.189 161.822 242.004C165.549 241.143 165.922 241.098 169.286 238.897C169.638 238.653 170.039 238.521 170.448 238.515Z" fill="#263238"/>
<path d="M165.899 77.1795C164.376 80.9687 162.743 84.5474 160.929 88.1198C160.019 89.8932 159.082 91.6602 158.068 93.3953C157.575 94.2629 157.044 95.1241 156.518 95.9853C155.991 96.8464 155.422 97.6949 154.813 98.5369L154.364 99.1748C154.136 99.5029 153.891 99.8139 153.63 100.106C153.457 100.303 153.274 100.486 153.082 100.655C152.871 100.843 152.647 101.012 152.413 101.159C151.901 101.49 151.345 101.72 150.769 101.841C149.721 102.043 148.645 101.892 147.667 101.408C146.995 101.068 146.366 100.621 145.799 100.081C144.943 99.2584 144.181 98.3131 143.53 97.2675C142.954 96.361 142.42 95.4199 141.93 94.4479C141.017 92.605 140.202 90.6983 139.491 88.7385C138.787 86.8151 138.17 84.8497 137.644 82.8506C137.515 82.3357 137.549 81.7838 137.741 81.2959C137.933 80.808 138.269 80.4168 138.688 80.1937C139.107 79.9707 139.581 79.9308 140.024 80.0813C140.466 80.2318 140.847 80.5627 141.097 81.0134L141.13 81.0708C142.852 84.3774 144.729 87.5718 146.752 90.6395C147.225 91.3379 147.73 92.0065 148.265 92.6426C148.693 93.1669 149.169 93.6353 149.684 94.0396C149.881 94.1736 150.04 94.2374 150.051 94.2118C150.062 94.1863 149.854 94.0651 149.503 94.1098C149.269 94.1562 149.046 94.2559 148.846 94.4032C148.818 94.4032 148.791 94.4479 148.95 94.1927L149.289 93.625C151.118 90.4397 152.806 87.1481 154.347 83.7628C155.948 80.3436 157.52 76.7968 159.016 73.3584V73.2946C159.462 72.2296 160.253 71.4142 161.214 71.0278C162.176 70.6414 163.231 70.7156 164.146 71.2341C165.061 71.7527 165.761 72.6731 166.093 73.7929C166.425 74.9126 166.361 76.14 165.916 77.205L165.899 77.1795Z" fill="#407BFF"/>
<path d="M141.278 82.5954L140.028 76.5607L135.157 79.0039C135.157 79.0039 135.59 83.7947 138.993 84.3879L141.278 82.5954Z" fill="#263238"/>
<path d="M141.02 81.1091C141.02 81.1091 142.604 83.4821 142.993 84.1328C142.445 84.7707 138.856 86.8822 138.571 86.6844C138.116 85.1726 137.475 83.1759 137.475 83.1759L141.02 81.1091Z" fill="#263238"/>
<path d="M136.384 72.7205L134.592 74.7235C134.45 74.8865 134.349 75.0914 134.3 75.3162C134.251 75.541 134.255 75.7772 134.313 75.9993L135.157 78.9784L140.028 76.5352L138.028 72.931C137.939 72.781 137.823 72.6551 137.688 72.5618C137.553 72.4684 137.403 72.4098 137.247 72.3898C137.091 72.3699 136.934 72.389 136.785 72.4461C136.636 72.5031 136.499 72.5967 136.384 72.7205Z" fill="#263238"/>
<path d="M139.146 79.7694C138.976 78.5446 140.028 74.7044 140.911 74.1558C141.793 73.6071 141.289 76.2545 141.404 77.1476C141.722 79.5972 141.831 81.9319 140.752 81.8043C139.672 81.6768 139.42 81.9 139.146 79.7694Z" fill="#263238"/>
<path opacity="0.2" d="M169.302 226.573L169.955 233.054L174.613 233.137L173.96 226.656L169.302 226.573Z" fill="black"/>
<path d="M162.135 69.9392C170.99 68.6633 179.561 70.0412 184.23 71.0938C184.7 71.2009 185.148 71.416 185.546 71.7264C185.944 72.0369 186.285 72.4365 186.55 72.902C186.814 73.3675 186.996 73.8896 187.085 74.4378C187.174 74.986 187.169 75.5494 187.069 76.095C183.594 95.4239 184.137 114.868 183.846 119.001L158.945 118.536C157.241 94.837 158.315 79.7439 158.973 73.588C159.076 72.6569 159.442 71.7923 160.015 71.1313C160.588 70.4704 161.334 70.0508 162.135 69.9392Z" fill="#407BFF"/>
<path d="M177.862 56.275C177.073 60.1727 176.174 67.3556 178.476 70.2007C176.558 72.1782 174.059 74.4364 170.009 74.2515C165.959 74.0665 166.77 70.9024 167.894 69.2885C171.73 68.5613 171.73 65.2824 171.182 62.1566L177.862 56.275Z" fill="#FFB573"/>
<path opacity="0.2" d="M175.133 58.6736L171.166 62.1821C171.307 62.9077 171.393 63.6462 171.423 64.3893C172.881 64.2745 174.931 62.5968 175.144 60.8489C175.255 60.1291 175.251 59.3918 175.133 58.6736Z" fill="black"/>
<path d="M178.991 50.3615C178.405 55.6881 178.301 58.8458 175.818 61.3911C172.092 65.2186 166.551 62.2778 165.751 56.8428C165.034 51.9436 166.108 44.0845 170.733 42.3111C171.757 41.9262 172.848 41.85 173.904 42.0896C174.96 42.3292 175.947 42.8767 176.772 43.6809C177.597 44.4852 178.233 45.5199 178.622 46.6882C179.01 47.8566 179.137 49.1204 178.991 50.3615Z" fill="#FFB573"/>
<path d="M179.26 54.9864C177.451 56.2622 175.385 55.6243 175.215 54.2847C175.045 52.9451 176.388 50.6294 176.892 49.5003C176.75 47.5866 175.588 47.0252 175.796 45.6728C174.443 45.8196 167.061 46.2087 167.236 44.2694C167.412 42.3302 170.338 40.3335 173.812 40.8375C177.287 41.3414 179.561 43.102 179.232 45.5644C181.172 45.2008 182.065 49.0219 179.26 54.9864Z" fill="#263238"/>
<path d="M180.876 55.803C180.57 56.3695 180.17 56.8596 179.699 57.2451C179.229 57.6305 178.698 57.9035 178.136 58.0484C176.635 58.4248 175.944 56.8364 176.443 55.2416C176.876 53.7999 178.18 51.8734 179.66 52.2115C179.982 52.2896 180.282 52.4597 180.534 52.7065C180.785 52.9532 180.98 53.2689 181.101 53.6251C181.221 53.9813 181.264 54.3668 181.225 54.747C181.186 55.1272 181.066 55.4901 180.876 55.803Z" fill="#FFB573"/>
<path d="M173.396 172.325C173.21 145.073 178.388 118.899 178.388 118.899L158.978 118.536C158.978 118.536 161.208 157.895 161.987 174.385C162.792 191.526 168.113 231.797 168.113 231.797L175.993 231.931C175.993 231.931 174.492 193.835 173.396 172.325Z" fill="#407BFF"/>
<path opacity="0.4" d="M173.396 172.325C173.21 145.073 178.388 118.899 178.388 118.899L158.978 118.536C158.978 118.536 161.208 157.895 161.987 174.385C162.792 191.526 168.113 231.797 168.113 231.797L175.993 231.931C175.993 231.931 174.492 193.835 173.396 172.325Z" fill="black"/>
<path opacity="0.2" d="M174.152 133.897C168.618 142.713 171.106 159.298 173.374 171.023C173.464 158.096 174.408 145.195 176.197 132.436L174.152 133.897Z" fill="black"/>
<path d="M167.061 228.225L167.571 231.963L176.284 232.135L176.777 228.601L167.061 228.225Z" fill="#263238"/>
<path d="M172.848 51.2546C172.848 51.6884 172.607 52.0265 172.361 52.001C172.114 51.9754 171.939 51.6118 171.966 51.178C171.993 50.7443 172.207 50.4062 172.454 50.4253C172.7 50.4444 172.892 50.8144 172.848 51.2546Z" fill="#263238"/>
<path d="M168.02 50.6231C168.02 51.0632 167.779 51.3949 167.532 51.3758C167.286 51.3567 167.11 50.9803 167.138 50.5465C167.165 50.1127 167.379 49.7746 167.626 49.7938C167.872 49.8129 168.048 50.1893 168.02 50.6231Z" fill="#263238"/>
<path d="M169.012 50.974C168.492 52.2675 167.818 53.4699 167.012 54.5463C167.255 54.7809 167.54 54.9514 167.845 55.0461C168.151 55.1408 168.47 55.1574 168.782 55.0949L169.012 50.974Z" fill="#ED893E"/>
<path d="M170.306 56.6387C170.727 56.6146 171.139 56.4888 171.517 56.2691C171.894 56.0495 172.228 55.7408 172.498 55.3628C172.515 55.3358 172.522 55.3017 172.518 55.2682C172.514 55.2347 172.499 55.2045 172.476 55.1842C172.452 55.1639 172.423 55.1552 172.394 55.16C172.366 55.1648 172.34 55.1827 172.322 55.2097C172.014 55.6159 171.627 55.9307 171.193 56.1281C170.76 56.3256 170.292 56.4 169.829 56.3452C169.812 56.3409 169.794 56.341 169.778 56.3455C169.761 56.3501 169.745 56.3589 169.732 56.3715C169.718 56.384 169.707 56.3999 169.7 56.418C169.693 56.4361 169.689 56.4559 169.689 56.476C169.689 56.496 169.693 56.5158 169.7 56.5339C169.707 56.552 169.718 56.5679 169.732 56.5805C169.745 56.593 169.761 56.6019 169.778 56.6065C169.794 56.611 169.812 56.6111 169.829 56.6068C169.987 56.6296 170.146 56.6403 170.306 56.6387Z" fill="#263238"/>
<path d="M173.637 49.7938C173.674 49.7931 173.71 49.7798 173.741 49.7555C173.766 49.7369 173.786 49.7128 173.803 49.6846C173.819 49.6565 173.83 49.6249 173.836 49.5916C173.841 49.5584 173.841 49.5241 173.835 49.4909C173.829 49.4578 173.818 49.4263 173.801 49.3983C173.618 49.0494 173.364 48.7571 173.063 48.5461C172.761 48.3352 172.421 48.2118 172.07 48.1862C172.012 48.1862 171.956 48.2131 171.915 48.261C171.874 48.3088 171.851 48.3737 171.851 48.4414C171.851 48.5108 171.874 48.5773 171.916 48.6264C171.959 48.6754 172.016 48.703 172.075 48.703C172.352 48.7298 172.619 48.8322 172.855 49.0018C173.091 49.1713 173.29 49.4034 173.434 49.679C173.456 49.7177 173.486 49.7488 173.522 49.7691C173.558 49.7893 173.598 49.7978 173.637 49.7938Z" fill="#263238"/>
<path d="M165.943 48.6009C165.979 48.6069 166.015 48.6024 166.048 48.5879C166.082 48.5734 166.111 48.5494 166.135 48.518C166.309 48.2681 166.533 48.0704 166.787 47.9417C167.04 47.813 167.317 47.7568 167.593 47.778C167.651 47.7853 167.709 47.7661 167.755 47.7244C167.801 47.6828 167.831 47.6219 167.839 47.5547C167.843 47.5212 167.841 47.4871 167.834 47.4544C167.826 47.4218 167.813 47.3912 167.795 47.3645C167.777 47.3377 167.755 47.3154 167.73 47.2988C167.704 47.2822 167.676 47.2716 167.647 47.2677C167.299 47.2377 166.95 47.3048 166.629 47.4634C166.308 47.6221 166.024 47.8677 165.801 48.1799C165.764 48.2317 165.746 48.2982 165.751 48.3651C165.756 48.4319 165.784 48.4938 165.828 48.5371C165.859 48.573 165.9 48.5955 165.943 48.6009Z" fill="#263238"/>
<path d="M199.897 239.223L195.234 239.14L193.316 226.566L197.979 226.656L199.897 239.223Z" fill="#407BFF"/>
<path d="M194.982 238.515L200.056 238.604C200.147 238.604 200.234 238.643 200.303 238.712C200.371 238.781 200.416 238.876 200.429 238.98L201.015 243.816C201.029 243.936 201.02 244.058 200.989 244.174C200.958 244.29 200.906 244.397 200.836 244.487C200.766 244.578 200.68 244.649 200.585 244.697C200.489 244.746 200.385 244.769 200.281 244.766C198.451 244.696 197.875 244.524 195.574 244.485C192.878 244.434 194.127 244.562 190.965 244.485C189.058 244.454 188.685 242.202 189.496 242.004C192.061 241.366 192.702 240.173 193.831 238.897C194.157 238.6 194.57 238.463 194.982 238.515Z" fill="#263238"/>
<path d="M195.952 239.082C195.146 239.114 194.713 239.082 194.505 238.655C194.297 238.227 193.568 236.984 193.623 236.518C193.677 236.052 196.949 235.669 197.272 236.422C197.596 237.175 197.596 239.031 195.952 239.082Z" fill="#263238"/>
<path d="M170.272 239.082C169.768 239.114 169.499 239.082 169.379 238.655C169.129 237.972 168.955 237.253 168.864 236.518C168.902 236.046 170.957 235.669 171.149 236.422C171.341 237.175 171.297 239.031 170.272 239.082Z" fill="#263238"/>
<path opacity="0.2" d="M193.316 226.573L194.308 233.054L198.971 233.137L197.979 226.656L193.316 226.573Z" fill="black"/>
<path d="M191.924 169.103C189.732 144.556 187.156 124.449 183.857 119.001L167.368 118.695C167.368 118.695 176.985 157.2 180.69 173.428C184.526 190.301 192.094 230.164 192.094 230.164L199.601 230.285C199.601 230.285 196.494 188.279 191.924 169.103Z" fill="#407BFF"/>
<path opacity="0.4" d="M191.924 169.103C189.732 144.556 187.156 124.449 183.857 119.001L167.368 118.695C167.368 118.695 176.985 157.2 180.69 173.428C184.526 190.301 192.094 230.164 192.094 230.164L199.601 230.285C199.601 230.285 196.494 188.279 191.924 169.103Z" fill="black"/>
<path d="M191.151 228.225L191.76 231.963L200.188 232.135L200.561 228.601L191.151 228.225Z" fill="#263238"/>
<path d="M172.941 78.1938C172.892 76.8287 171.544 75.0042 170.667 74.2578C177.161 72.1719 178.377 69.4288 178.377 69.4288C178.844 69.5701 179.292 69.7847 179.709 70.0667C180.093 74.3025 175.588 77.2178 172.941 78.1938Z" fill="white"/>
<path d="M169.111 74.1494C167.654 74.9383 166.459 76.26 165.708 77.9131C163.006 72.2994 166.804 69.0588 166.804 69.0588C167.224 68.9206 167.664 68.8859 168.097 68.9567C167.368 70.8322 168.206 73.301 169.111 74.1494Z" fill="white"/>
<path d="M207.662 80.6378L166.411 88.063L171.034 122.862L212.285 115.437L207.662 80.6378Z" fill="#407BFF"/>
<path opacity="0.9" d="M207.662 80.6378L166.411 88.063L171.034 122.862L212.285 115.437L207.662 80.6378Z" fill="white"/>
<path opacity="0.2" d="M207.665 80.6345L186.16 84.5056L190.782 119.305L212.288 115.434L207.665 80.6345Z" fill="#407BFF"/>
<path opacity="0.3" d="M177.598 111.877L172.42 112.809L173.201 118.684L178.378 117.752L177.598 111.877Z" fill="#407BFF"/>
<path opacity="0.3" d="M176.63 104.588L171.452 105.52L172.233 111.395L177.41 110.463L176.63 104.588Z" fill="#407BFF"/>
<path opacity="0.5" d="M179.708 85.6719L172.407 86.986L172.797 89.9175L180.097 88.6034L179.708 85.6719Z" fill="#407BFF"/>
<path opacity="0.5" d="M202.541 81.555L197.413 82.4781L197.802 85.4096L202.931 84.4865L202.541 81.555Z" fill="#407BFF"/>
<path d="M185.578 71.7508C188.74 73.5092 191.789 75.5303 194.702 77.7983C196.232 78.9647 197.696 80.2431 199.086 81.6258C199.848 82.3928 200.566 83.2175 201.234 84.0945C201.617 84.6113 201.971 85.1568 202.292 85.7276C202.707 86.4521 203.033 87.2399 203.262 88.0687C203.419 88.6304 203.511 89.2139 203.536 89.8038C203.544 89.9057 203.544 90.0082 203.536 90.11V90.3269V90.7671L203.509 91.6474L203.443 92.4703C203.399 93.0189 203.35 93.5675 203.273 94.0842C203.196 94.6009 203.147 95.1368 203.059 95.6407C202.769 97.7012 202.341 99.6596 201.914 101.612C201.023 105.479 199.925 109.278 198.626 112.986C198.452 113.486 198.128 113.896 197.714 114.139C197.3 114.382 196.824 114.442 196.375 114.307C195.926 114.172 195.534 113.852 195.273 113.405C195.011 112.959 194.898 112.418 194.954 111.882V111.831C195.343 108.004 195.82 104.138 196.165 100.349C196.357 98.4348 196.505 96.5657 196.604 94.7349C196.637 94.2756 196.637 93.8355 196.659 93.3825C196.681 92.9296 196.659 92.4958 196.659 92.0684V91.4305V90.8436V90.5502V90.4035C196.659 90.4035 196.659 90.2567 196.659 90.3397C196.654 90.4417 196.654 90.5439 196.659 90.6459C196.659 90.716 196.598 90.5757 196.467 90.4035C196.297 90.1764 196.114 89.9633 195.919 89.7656C195.437 89.2186 194.927 88.7072 194.39 88.2346C193.228 87.2075 191.924 86.1996 190.581 85.2364C187.891 83.3226 184.997 81.4854 182.175 79.7439H182.137C181.26 79.1906 180.604 78.2619 180.305 77.1545C180.007 76.0472 180.091 74.8482 180.539 73.8116C180.987 72.7749 181.764 71.9821 182.706 71.601C183.648 71.2199 184.68 71.2805 185.584 71.77L185.578 71.7508Z" fill="#407BFF"/>
<path d="M195.354 110.861L192.56 115.276L197.864 117.534C197.864 117.534 199.979 113.177 198.171 111.499L195.354 110.861Z" fill="#263238"/>
<path d="M193.261 120.915L195.234 121.342C195.614 121.421 196.005 121.341 196.34 121.117C196.675 120.893 196.931 120.539 197.064 120.118L197.864 117.566L192.576 115.276L191.973 118.663C191.887 119.161 191.975 119.677 192.216 120.099C192.458 120.522 192.834 120.815 193.261 120.915Z" fill="#263238"/>
<path d="M194.894 112.086C194.894 112.086 194.993 109.082 195.058 108.297C195.831 108.24 199.744 109.292 199.842 109.662C199.36 111.168 198.746 113.171 198.746 113.171L194.894 112.086Z" fill="#263238"/>
<path d="M181.512 49.4238C178.865 49.0793 167.993 45.9982 166.984 44.7798C166.913 42.4259 168.08 40.0464 168.798 39.5106C170.798 37.9796 175.199 37.9222 176.596 38.3815C177.994 38.8408 181.819 41.1054 182.454 43.2871C182.948 45.0158 181.512 49.4238 181.512 49.4238Z" fill="#407BFF"/>
<path d="M170.535 44.0462C167.198 43.4402 164.025 43.7081 162.902 45.6729C161.647 47.8673 165.779 44.6076 168.245 46.011C172.371 48.3713 171.39 48.7413 177.643 48.5626C174.426 46.6617 174.404 44.7479 170.535 44.0462Z" fill="#407BFF"/>
<path opacity="0.6" d="M170.535 44.0462C167.198 43.4402 164.025 43.7081 162.902 45.6729C161.647 47.8673 165.779 44.6076 168.245 46.011C172.371 48.3713 171.39 48.7413 177.643 48.5626C174.426 46.6617 174.404 44.7479 170.535 44.0462Z" fill="white"/>
<path d="M177.977 53.1811C178.043 53.126 178.088 53.0432 178.102 52.9504C178.117 52.8576 178.099 52.7619 178.054 52.6835C178.007 52.6067 177.935 52.5548 177.855 52.5393C177.775 52.5237 177.693 52.5458 177.627 52.6006C176.482 53.5199 175.416 54.5645 174.443 55.72C173.248 54.272 169.889 52.7473 168.13 52.7792C166.875 52.7792 166.042 52.7091 165.105 53.7871C164.305 54.6994 164.968 59.5284 165.472 60.8935C165.763 61.6424 166.195 62.305 166.737 62.8319C167.279 63.3588 167.916 63.7364 168.601 63.9364C170.453 64.3255 174.41 64.5743 174.574 61.423C174.609 60.7155 174.688 60.012 174.81 59.3179C175.072 59.3702 175.338 59.398 175.605 59.4008C176.406 59.421 177.189 59.1267 177.829 58.5651C177.861 58.537 177.888 58.5016 177.908 58.4612C177.929 58.4208 177.942 58.3761 177.947 58.3298C177.952 58.2834 177.949 58.2363 177.938 58.1913C177.927 58.1463 177.909 58.1042 177.884 58.0676C177.86 58.0301 177.829 57.9986 177.794 57.9751C177.758 57.9516 177.719 57.9364 177.679 57.9305C177.639 57.9245 177.598 57.928 177.559 57.9405C177.52 57.9531 177.483 57.9746 177.451 58.0038C177.091 58.3007 176.683 58.5103 176.252 58.6199C175.821 58.7295 175.375 58.7369 174.941 58.6417C175.117 57.7103 175.205 57.1107 174.815 56.3324C175.776 55.1617 176.836 54.106 177.977 53.1811Z" fill="#407BFF"/>
<path opacity="0.6" d="M177.977 53.1811C178.043 53.126 178.088 53.0432 178.102 52.9504C178.117 52.8576 178.099 52.7619 178.054 52.6835C178.007 52.6067 177.935 52.5548 177.855 52.5393C177.775 52.5237 177.693 52.5458 177.627 52.6006C176.482 53.5199 175.416 54.5645 174.443 55.72C173.248 54.272 169.889 52.7473 168.13 52.7792C166.875 52.7792 166.042 52.7091 165.105 53.7871C164.305 54.6994 164.968 59.5284 165.472 60.8935C165.763 61.6424 166.195 62.305 166.737 62.8319C167.279 63.3588 167.916 63.7364 168.601 63.9364C170.453 64.3255 174.41 64.5743 174.574 61.423C174.609 60.7155 174.688 60.012 174.81 59.3179C175.072 59.3702 175.338 59.398 175.605 59.4008C176.406 59.421 177.189 59.1267 177.829 58.5651C177.861 58.537 177.888 58.5016 177.908 58.4612C177.929 58.4208 177.942 58.3761 177.947 58.3298C177.952 58.2834 177.949 58.2363 177.938 58.1913C177.927 58.1463 177.909 58.1042 177.884 58.0676C177.86 58.0301 177.829 57.9986 177.794 57.9751C177.758 57.9516 177.719 57.9364 177.679 57.9305C177.639 57.9245 177.598 57.928 177.559 57.9405C177.52 57.9531 177.483 57.9746 177.451 58.0038C177.091 58.3007 176.683 58.5103 176.252 58.6199C175.821 58.7295 175.375 58.7369 174.941 58.6417C175.117 57.7103 175.205 57.1107 174.815 56.3324C175.776 55.1617 176.836 54.106 177.977 53.1811Z" fill="white"/>
</svg>
