<svg id="Capa_1" enable-background="new 0 0 510.027 510.027" height="512" viewBox="0 0 510.027 510.027" width="512" xmlns="http://www.w3.org/2000/svg"><g><path d="m180.019 331.77v-40.557l30-30v-207.426l-53.787-53.787h-6.213v347.878c-5.996 5.407-10.82 11.354-15 18.024-4.182-6.676-9.008-12.62-15-18.024 0-11.499 0-336.345 0-347.878h-6.213l-53.787 53.787v207.426l30 30v40.557c-24.106-5.776-50.364 2.358-69.14 25.828-27.82 34.775-27.837 90.01 0 124.807 31.611 39.513 86.044 36.539 114.14-8.306 13.604 21.715 35.027 35.901 60 35.901 20.676 0 39.903-9.801 54.14-27.596 27.821-34.776 27.837-90.01 0-124.807-18.773-23.466-45.046-31.601-69.14-25.827zm-105 148.23c-24.813 0-45-26.916-45-60s20.187-60 45-60 45 26.916 45 60-20.187 60-45 60zm120 0c-24.813 0-45-26.916-45-60s20.187-60 45-60 45 26.916 45 60-20.187 60-45 60z"/><path d="m510.019 90v-30c0-33.084-26.916-60-60-60h-105c-24.814 0-45 20.188-45 45v465h90v-120h60c33.084 0 60-26.916 60-60v-30h-120v-30h90v-30h-90v-30h90v-30h-90v-30h90v-30h-90v-30z"/></g></svg>